<?xml version="1.0" encoding="utf-8"?>
<!-- Uploaded to: SVG Repo, www.svgrepo.com, Generator: SVG Repo Mixer Tools -->
<svg width="800px" height="800px" viewBox="-59.01 0 359.43 359.43" xmlns="http://www.w3.org/2000/svg"><defs><style>.a{fill:#ffffff;}.b{fill:#7a7473;}.c{fill:#211715;}.d{fill:#6dbf6b;}</style></defs><path class="a" d="M148.166,175.458a110.745,110.745,0,0,1-.762-11.1c12.485-7.6,22.144-23.938,23.97-28.894.3-.923.923-2.661,1.474-4.724l1.15-.178a14.446,14.446,0,0,0,6.719-3.028,21.794,21.794,0,0,0,5.634-7.395,34.285,34.285,0,0,0,3.5-18.173,11.437,11.437,0,0,0-1.2-4.6,8.094,8.094,0,0,0-5.818-3.868,8.57,8.57,0,0,0-6.857,2.007s1.961-47.044-56.577-47.044c-48.972,0-57.823,32.71-58.4,43.634a31.678,31.678,0,0,0-.028,3.41,8.569,8.569,0,0,0-6.857-2.007,8.1,8.1,0,0,0-5.818,3.868,11.435,11.435,0,0,0-1.2,4.6,34.285,34.285,0,0,0,3.5,18.173,21.8,21.8,0,0,0,5.635,7.395,14.438,14.438,0,0,0,6.718,3.028l2.19.334a58.3,58.3,0,0,0,11.111,21.691,52.912,52.912,0,0,0,13.4,11.73c-.086,3.258-.35,7.333-.742,11,0,0,.8,27.491,29.911,27.491S148.166,175.458,148.166,175.458Z"/><path class="b" d="M102.8,3.05c-12.812,1.462-26,6.073-36.683,16.828l5.115,4.366c-8.719,5.387-15.565,15.824-18.711,25.062-3.7,10.869-4.807,26.337-.412,44.611l.032.134a8.022,8.022,0,0,1,1.969-.557A8.569,8.569,0,0,1,60.967,95.5l7.349-4.377.6-.36c15.538-14.54,24.2-20.56,38.127-31.5.084.97,3.189,8.732,3.916,9.027.9.364,9.872-5.185,17.177-9.7l12.331,1.5c5.664,1.239,10.979,4.316,15.766,8.435,8.484,7.3,15.307,17.872,19.466,27.276a8.394,8.394,0,0,1,7.128-2.308,8.083,8.083,0,0,1,1.494.372c4.261-10.946,4.884-26.8-.5-41.845-3.783-10.577-12.8-21.638-19.914-24.749l-8.395-5.983C147.28,10,133.546,3.081,115.968,2.544A91.79,91.79,0,0,0,102.8,3.05Z"/><path class="c" d="M177.671,97.2a6.085,6.085,0,0,1,8.536.787c1.206,1.585,1.283,3.851,1.346,5.754a30.791,30.791,0,0,1-.393,6.223c-1.31,7.59-5.34,16.84-13.8,18.285a2.419,2.419,0,0,0-1.676,2.952,2.456,2.456,0,0,0,2.953,1.676c8.529-1.456,13.618-9.419,16.045-17.089a36.059,36.059,0,0,0,1.63-12.935c-.254-4.208-1.463-8.182-5.326-10.4A11.067,11.067,0,0,0,174.277,93.8a2.421,2.421,0,0,0,0,3.394,2.45,2.45,0,0,0,3.394,0Z"/><path class="c" d="M171.51,124.181a28.71,28.71,0,0,1-1.344,7.223c-.272.918-.571,1.826-.876,2.733-.089.266-.174.534-.271.8-.029.077-.062.152-.089.229-.191.541.08-.17.007-.009a58.99,58.99,0,0,1-3.79,6.948A68.408,68.408,0,0,1,149.806,159.8a29.138,29.138,0,0,1-11.321,5.721c-3.01.69-1.736,5.319,1.276,4.628,8.541-1.959,15.688-8.12,21.32-14.56a73.323,73.323,0,0,0,11.849-17.669,37.246,37.246,0,0,0,3.38-13.736c.1-3.09-4.7-3.086-4.8,0Z"/><path class="c" d="M62.664,93.8a11.02,11.02,0,0,0-11.149-2.078c-4.128,1.632-6.2,5.09-6.727,9.378a35,35,0,0,0,6.131,24.222c2.8,3.785,6.656,6.741,11.386,7.549a2.47,2.47,0,0,0,2.952-1.676,2.419,2.419,0,0,0-1.676-2.952c-8.459-1.445-12.49-10.7-13.8-18.285a30.647,30.647,0,0,1-.393-6.223c.062-1.9.141-4.171,1.346-5.754A6.084,6.084,0,0,1,59.27,97.2a2.463,2.463,0,0,0,3.394,0,2.421,2.421,0,0,0,0-3.394Z"/><path class="c" d="M60.974,123.31a68.871,68.871,0,0,0,8.633,24.1c4.968,8.172,12.183,15.556,20.7,20.03a39.844,39.844,0,0,0,14.534,4.383,2.416,2.416,0,0,0,2.4-2.4,2.454,2.454,0,0,0-2.4-2.4C87.554,165.233,74.1,149.749,68.68,134.175A76.746,76.746,0,0,1,65.6,122.034a2.42,2.42,0,0,0-2.952-1.676,2.454,2.454,0,0,0-1.676,2.952Z"/><path class="c" d="M162.7,29.345a27.263,27.263,0,0,1,8.663,6.8,53.069,53.069,0,0,1,7.78,11.184c4.6,8.786,6.423,19.164,6.114,29.02a53.132,53.132,0,0,1-2.5,14.767c-.956,2.945,3.677,4.207,4.628,1.276,3.138-9.668,3.355-20.192,1.613-30.149a58.555,58.555,0,0,0-12.953-28.02c-3.007-3.555-6.625-7.095-10.928-9.027a2.473,2.473,0,0,0-3.283.861,2.42,2.42,0,0,0,.861,3.284Z"/><path class="c" d="M75.376,19.578c-10.253,3.84-17.862,13.09-22.529,22.712-4.576,9.434-6.193,19.989-5.976,30.41a103.881,103.881,0,0,0,2.923,21.855c.716,3,5.345,1.732,4.629-1.276C49.685,73.382,50,50.561,63.729,34.13c3.484-4.171,7.767-7.992,12.923-9.923a2.468,2.468,0,0,0,1.676-2.953,2.419,2.419,0,0,0-2.952-1.676Z"/><path class="c" d="M157.592,20.078C149.8,9.49,137.949,3.089,125.067,1.021c-13.153-2.112-27.6-1-40.059,3.833A59.372,59.372,0,0,0,64.42,18.181c-2.189,2.186,1.2,5.581,3.394,3.394C77.106,12.293,89.4,7.052,102.36,5.5c12.261-1.467,25.444-.768,36.618,4.923A40.961,40.961,0,0,1,153.447,22.5a2.471,2.471,0,0,0,3.284.861,2.417,2.417,0,0,0,.861-3.283Z"/><path class="c" d="M130.63,54.237c-4.918,3.018-9.793,6.109-14.78,9.012-.975.568-1.956,1.129-2.95,1.663-.406.218-.814.433-1.228.637-.16.078-.321.152-.481.23-.44.215-.072.031-.035.019a1.128,1.128,0,0,0-.325.116c-.151.187-.413-.166.029.026a8.893,8.893,0,0,1,1.676.557c.086.064.282.49.08.076-.4-.812-.838-1.6-1.207-2.426-.447-1-.8-1.871-1.243-3.043-.187-.494-.37-.99-.535-1.492-.1-.3-.321-1.408-.184-.348a2.44,2.44,0,0,0-4.1-1.7c-9.743,7.65-19.669,15.057-29,23.221q-4.948,4.331-9.734,8.843c-2.258,2.118,1.141,5.507,3.394,3.394C79.56,84.07,89.605,75.789,99.956,67.789q4.4-3.4,8.788-6.828l-4.1-1.7a24.623,24.623,0,0,0,2.149,6.224c.706,1.663,1.574,4.6,3.569,5.129,1.825.487,3.977-1.019,5.49-1.85,2.613-1.435,5.163-2.989,7.707-4.541,3.172-1.935,6.324-3.9,9.49-5.844,2.629-1.613.22-5.767-2.422-4.145Z"/><path class="c" d="M139.833,62.406c8.083,1.831,14.767,7.175,20.2,13.227a81.606,81.606,0,0,1,13.173,20.44,2.419,2.419,0,0,0,3.284.861,2.455,2.455,0,0,0,.861-3.283,85.355,85.355,0,0,0-14.207-21.725c-5.9-6.491-13.337-12.178-22.037-14.149-3.008-.681-4.293,3.945-1.276,4.629Z"/><path class="c" d="M91.3,175.312c.387-3.655.646-7.327.75-11a2.42,2.42,0,0,0-2.4-2.4,2.447,2.447,0,0,0-2.4,2.4c-.1,3.673-.363,7.345-.75,11a2.408,2.408,0,0,0,2.4,2.4,2.468,2.468,0,0,0,2.4-2.4Z"/><path class="c" d="M145.006,164.489a109.6,109.6,0,0,0,.76,10.969,2.461,2.461,0,0,0,2.4,2.4c1.174-.052,2.558-1.065,2.4-2.4a109.6,109.6,0,0,1-.76-10.969,2.4,2.4,0,1,0-4.8,0Z"/><path class="d" d="M238.192,286.034c-.556-10.621-1.977-23.766-3-32.055-.963-7.82-1.769-15.915-4.9-23.146-5.5-12.709-18.083-20.843-30.713-26.523-12.752-5.734-30.868-13-39.278-17.145-.486-2.181-5.836-12.11-7.634-16.754-.127-.327-.294-.693-.631-.793-.366-.109-.729.158-1.019.407-3.246,2.788-21.066,17.3-22.977,19.645-.464,1.561-1.32,5.191-2.385,8.434-2.2,5.3-4.979,11.9-7.109,16.363-1.483-3.193-4.25-10-5.791-13.656-1.91-6-3.045-8.927-3.7-11.141-1.911-2.342-19.731-16.857-22.977-19.645-.29-.249-.653-.516-1.02-.407-.336.1-.5.466-.63.793-1.808,4.669-7.207,14.682-7.642,16.78a323.9,323.9,0,0,0-49.208,25.363c-5.687,3.544-11.392,7.375-15.353,12.78-6.1,8.326-7.44,19.425-8.475,29.695-.908,9.007-2.085,31-.649,47.661a34.962,34.962,0,0,0,28.174,30.23c15.445,2.609,26.313-9.176,35.081-20.134,2.489-3.11,4.8-6.328,6.968-9.632l2.124-.17c5.041-.767,10.6,4.183,14.4,5.641,4.507,1.73,13.728,4.109,18.544,4.437l.3.042c-.794,12.124-2.708,31.26-2.259,36.636,11.8,3.482,64.246,7.984,78.025,7.294,13.217-.661,27.266.657,38.652-7.232,12.074-8.367,15.909-16.63,15.866-30.761-.035-11.421-.01-21.6-.795-33.173"/><path class="c" d="M116.147,211.071c0,8.644.132,17.29.233,25.934q.254,21.843.564,43.686.189,13.688.389,27.375c.045,3.086,4.845,3.1,4.8,0q-.348-23.925-.664-47.85-.246-18.769-.444-37.539c-.037-3.869-.077-7.737-.078-11.606,0-3.089-4.8-3.094-4.8,0Z"/><path class="c" d="M159.328,189.355c7.218,3.52,14.682,6.547,22.07,9.685,8.267,3.511,16.74,6.807,24.623,11.137,7.493,4.115,14.716,9.4,19.414,16.672,5.367,8.309,6.289,18.34,7.455,27.922,1.264,10.385,2.346,20.813,2.9,31.263.163,3.073,4.964,3.092,4.8,0-.514-9.661-1.49-19.3-2.62-28.908-1.174-9.982-1.92-20.489-6.588-29.581-8.623-16.8-27.464-24.088-43.81-31.054-8.632-3.678-17.385-7.166-25.823-11.28a2.462,2.462,0,0,0-3.284.861,2.421,2.421,0,0,0,.861,3.283Z"/><path class="c" d="M76.146,184.877a312.05,312.05,0,0,0-31.538,14.96q-7.633,4.152-15.055,8.68A102.756,102.756,0,0,0,16.1,217.743,35.071,35.071,0,0,0,6.805,229.9a57.345,57.345,0,0,0-4.192,14.832A220.854,220.854,0,0,0,.371,269.54,258.415,258.415,0,0,0,.7,302.69a2.463,2.463,0,0,0,2.4,2.4,2.418,2.418,0,0,0,2.4-2.4,247.3,247.3,0,0,1-.492-28.838c.252-7.861.726-15.717,1.647-23.529,1.122-9.525,3.191-19.511,10.1-26.626a62.208,62.208,0,0,1,12.036-9.071q7.165-4.467,14.536-8.6a305.05,305.05,0,0,1,34.1-16.523,2.475,2.475,0,0,0,1.676-2.952,2.416,2.416,0,0,0-2.952-1.676Z"/><path class="c" d="M120.619,213.256c-1-2.173-1.923-4.385-2.845-6.594-.99-2.37-2.141-4.739-2.926-7.184-.816-2.542-1.679-5.066-2.544-7.591-.521-1.517-.825-3.183-1.964-4.361-2.125-2.2-4.569-4.132-6.9-6.107-3.22-2.732-6.468-5.431-9.718-8.127q-1.968-1.633-3.935-3.268c-1.08-.9-2.374-2.344-3.734-2.718-3.3-.909-4.209,3.192-5.138,5.2-.971,2.1-1.993,4.177-3,6.258-.9,1.859-1.818,3.715-2.63,5.616-.524,1.23-1.175,2.531-.793,3.9a17.667,17.667,0,0,0,1.76,3.572c1,1.8,2.059,3.583,3.134,5.347a118.089,118.089,0,0,0,9.8,14.425,3.751,3.751,0,0,0,4.821.883c1.455-.906,2.072-2.93,2.824-4.4q2.511-4.9,5.082-9.761c1.446-2.728-2.7-5.157-4.144-2.423q-2,3.78-3.964,7.584-.951,1.846-1.9,3.7c-.425.831-1.8,2.518.49,1.076.251-.158.481.634.182-.053a2.944,2.944,0,0,0-.36-.464c-2.8-3.655-5.312-7.534-7.74-11.44-1.818-2.924-3.67-5.879-5.194-8.972-.083-.169-.15-.354-.246-.516-.166-.282.162.611.056.107-.066-.317.054.754.058.477,0-.139-.256.621-.049.368a2.7,2.7,0,0,0,.2-.657c.087-.243.185-.482.282-.721-.21.515.207-.465.273-.612.405-.9.829-1.79,1.256-2.679,1-2.089,2.031-4.165,3.029-6.256.471-.986.936-1.975,1.383-2.972a19.966,19.966,0,0,1,1.308-2.887l-.861.861.285-.178-1.212.328.363,0-1.211-.328a9.4,9.4,0,0,1,1.39,1.059q.98.821,1.964,1.636,2.639,2.192,5.279,4.383c3.748,3.116,7.5,6.23,11.164,9.447a30.168,30.168,0,0,1,3.351,3.15l-.618-1.059a193.567,193.567,0,0,0,9.737,25.371,2.419,2.419,0,0,0,3.283.861,2.455,2.455,0,0,0,.861-3.284Z"/><path class="c" d="M120.619,215.679c2.011-4.233,3.836-8.552,5.652-12.871a60.021,60.021,0,0,0,2.487-6.639c.56-1.946,1.031-3.917,1.6-5.861l-.618,1.059a25.358,25.358,0,0,1,2.721-2.593c1.646-1.464,3.323-2.892,5-4.316,3.771-3.194,7.579-6.344,11.382-9.5q1.2-1,2.4-2,.435-.363.868-.728a2.944,2.944,0,0,1,.774-.542l-1.211.328.362,0-1.211-.328.285.178-.861-.861a38.486,38.486,0,0,1,2.29,5.016c.906,1.918,1.843,3.822,2.769,5.731.728,1.5,1.734,3.565,2.233,4.761-.091-.218.162.41.213.548.074.2.12.431.205.629s-.062.288.01-.055c.168-.806-.253.857.038-.742-.08.441,0,.02.063-.1A151.815,151.815,0,0,1,145.814,206.5c-.311.424-.625.847-.944,1.265,0,0-.356.456-.36.464l-.18.228q.814-.558,1.675.359a4.015,4.015,0,0,0-.418-.818l-.7-1.37q-.523-1.02-1.047-2.041-2.232-4.345-4.518-8.662c-1.447-2.731-5.591-.308-4.144,2.423q2.192,4.137,4.332,8.3c1.286,2.5,2.565,7.03,6.189,6.3a4.981,4.981,0,0,0,2.946-2.281q1.172-1.52,2.278-3.086c1.41-1.988,2.763-4.016,4.081-6.066,2.294-3.566,4.55-7.187,6.532-10.938a7.37,7.37,0,0,0,1.2-3.159,10.621,10.621,0,0,0-1.366-4.044c-1.8-4.01-3.869-7.9-5.668-11.908q-.111-.248-.22-.5c.009.02-.33-.767-.159-.359-.2-.469-.362-.96-.583-1.417a3.17,3.17,0,0,0-4.778-1.367,32.058,32.058,0,0,0-2.878,2.374c-5.819,4.843-11.7,9.619-17.389,14.616-1.01.887-2.046,1.768-2.977,2.74a5.329,5.329,0,0,0-1.268,2.458c-.4,1.482-.78,2.969-1.2,4.446a80.152,80.152,0,0,1-3.646,9.513c-1.328,3.113-2.678,6.219-4.13,9.276a2.466,2.466,0,0,0,.861,3.284,2.42,2.42,0,0,0,3.283-.861Z"/><path class="c" d="M190.062,246.8c-.148,17.78.361,35.552.9,53.322.066,2.2.154,4.4.156,6.594,0,3.089,4.8,3.094,4.8,0,0-5.03-.266-10.068-.415-15.095-.27-9.116-.493-18.234-.6-27.353q-.1-8.733-.039-17.468c.026-3.089-4.774-3.092-4.8,0Z"/><path class="a" d="M51.577,327.759c-5.843,4.128-12.553,6.517-20.459,5.134,3.866,5.179,11.571,6.9,14.571,7.381,9.869,1.58,20.306,3.357,30.387,2.418,5.179-.482,10.164-1.722,15.4-1.687,5.509.038,7.5-.446,13.005-.163l2.15-.072c.489-8.18,1.532-19.526,2.067-27.687l-.306-.021c-4.816-.328-14.037-2.707-18.544-4.437-3.8-1.458-9.357-6.408-14.4-5.641l-2.259.371c-2.13,3.235-4.395,6.385-6.833,9.431C62.036,318.182,57.209,323.779,51.577,327.759Z"/><path class="c" d="M108.388,310.662a68.385,68.385,0,0,1-16.5-3.844c-5.26-1.811-10.257-7.018-16.438-6.234a2.477,2.477,0,0,0-2.4,2.4,2.414,2.414,0,0,0,2.4,2.4c3.009-.382,5.735,1.207,8.251,2.663a40.139,40.139,0,0,0,7.475,3.59,72.445,72.445,0,0,0,17.216,3.825,2.421,2.421,0,0,0,2.4-2.4,2.448,2.448,0,0,0-2.4-2.4Z"/><path class="c" d="M66.552,317.055q.921.306,1.827.66.307.12.613.244a2.647,2.647,0,0,1,.344.142l-.373-.158.2.087q.654.284,1.295.593a19.329,19.329,0,0,1,2.474,1.405c.187.128.812.676.149.091.147.131.3.251.448.385s.262.259.387.394c.3.326-.1-.194-.156-.218.065.028.146.209.184.27a2.4,2.4,0,1,0,4.145-2.423,12.112,12.112,0,0,0-5.1-4,41.164,41.164,0,0,0-5.159-2.1,2.42,2.42,0,0,0-2.953,1.677,2.456,2.456,0,0,0,1.677,2.952Z"/><path class="c" d="M104.477,338.442c-4.566-.22-9.149.1-13.716.167-5.5.079-10.868,1.461-16.342,1.813a89.508,89.508,0,0,1-16.96-.78A130.534,130.534,0,0,1,44.026,337.5c-4.025-.945-8.05-2.581-10.8-5.786a2.421,2.421,0,0,0-3.394,0,2.449,2.449,0,0,0,0,3.394c5.784,6.748,15.464,7.609,23.658,8.791a113.419,113.419,0,0,0,17.6,1.444c5.769-.071,11.357-1.353,17.083-1.811,2.814-.226,5.648-.119,8.468-.244,2.617-.117,5.218-.176,7.837-.05,3.088.15,3.08-4.651,0-4.8Z"/><path class="c" d="M197.68,304.4c-.82.128.524-.048-.268.037-.344.036-.687.076-1.031.109-.87.083-1.742.15-2.614.211-2.384.166-4.772.285-7.159.391-6.593.291-13.191.471-19.788.614-14.417.312-28.848.479-43.267.243-2.947-.048-5.894-.114-8.839-.243-1.073-.048-2.146-.1-3.217-.18-.43-.03-.86-.064-1.289-.1-.3-.029-1.635-.194-.588-.052a2.447,2.447,0,0,0-3.038,2.314c-.436,11.831-1.91,23.6-2.484,35.428a52.08,52.08,0,0,0-.066,6.575,2.49,2.49,0,0,0,1.762,2.314,78.663,78.663,0,0,0,10.345,2.017c5.3.8,10.619,1.442,15.945,2.025,11.709,1.281,23.459,2.281,35.221,2.935a292.038,292.038,0,0,0,31.826-.076c8.1-.432,16.342-1.706,23.408-5.933,5.759-3.445,11.256-8.291,14.568-14.193,3.162-5.634,4.166-12.1,4.26-18.481.136-9.136,0-18.316-.4-27.444q-.153-3.52-.391-7.036a2.457,2.457,0,0,0-2.4-2.4,2.421,2.421,0,0,0-2.4,2.4c.6,9.042.743,18.1.777,27.159.025,6.816.332,13.74-2.108,20.232-1.99,5.295-6.118,9.713-10.681,13.126a34.766,34.766,0,0,1-10.185,5.437,50.4,50.4,0,0,1-11.158,2.108c-6.628.568-13.369.67-20.02.766-4.064.059-8.134-.114-12.192-.312-11.387-.558-22.762-1.5-34.1-2.661-9.344-.96-18.118-1.7-27.24-3.829-.605-.141-1.206-.294-1.8-.468l1.762,2.314c-.362-4.606.2-9.361.528-13.952.461-6.386,1.017-12.765,1.486-19.15.218-2.964.427-5.931.536-8.9l-3.038,2.314a113.1,113.1,0,0,0,12.8.707c6.685.143,13.373.156,20.06.13,14.5-.055,29-.273,43.486-.861a126.583,126.583,0,0,0,14.262-1,2.418,2.418,0,0,0,1.676-2.953,2.46,2.46,0,0,0-2.952-1.676Z"/><path class="a" d="M109.6,163.066c-6.811,1.389-14.764,6.038-16.982,10.69a127.393,127.393,0,0,0-7.822,21.91c-2,7.538-3.877,15.43-7.835,22.017-.59.981-1.87,2.824-2.877,4.22,6.479,3.688,15.3,9.121,21.451,13.08,3.735-2.175,7.888-3.626,9.53-7.188,3.05-6.614-.153-10.912,8.63-11.618,3.161-.254,5.625.1,7.749-2.956,1.517-2.186,1.893-6.339-.146-8.028,5.6.16,9.4-4.3,5.961-11.071,5.842-2.6,2.863-11.337.3-13.569,0-4.482-1.343-8.419-2.945-10.5-2.562-3.33-5.636-6.6-9.606-7.3A16.67,16.67,0,0,0,109.6,163.066Z"/><path class="c" d="M76.376,222.774c5.489-7.365,7.975-15.993,10.279-24.758,1.181-4.49,2.47-8.944,4.028-13.318.766-2.15,1.582-4.285,2.484-6.38a23.222,23.222,0,0,1,2.435-4.861,21.608,21.608,0,0,1,7.01-5.341,27.288,27.288,0,0,1,8.838-2.949,9.58,9.58,0,0,1,4.184.219,11.351,11.351,0,0,1,4.3,2.913,16.012,16.012,0,0,1,4.987,9.125c.2,1.216,0,2.593.32,3.768a3.209,3.209,0,0,0,.859,1.286c.119.132.5.614.227.236a8.886,8.886,0,0,1,1.559,3.318,7.712,7.712,0,0,1,.231,3.6,3.122,3.122,0,0,1-2.071,2.414,2.442,2.442,0,0,0-.861,3.283c.945,1.926,1.4,4.153.406,5.713a2.727,2.727,0,0,1-.716.782c.259-.215-.378.248-.362.239a5.489,5.489,0,0,1-.592.314,6.849,6.849,0,0,1-2.625.412,2.425,2.425,0,0,0-1.7,4.1c1.572,1.429.513,5.044-1.355,6.183a7.615,7.615,0,0,1-3.522.637,19.209,19.209,0,0,0-5.02.758,7.265,7.265,0,0,0-4.931,5.13c-.625,2.217-.747,4.538-1.646,6.687-1.492,3.567-5.86,4.912-8.958,6.708-2.672,1.548-.258,5.7,2.422,4.145,3.439-1.993,7.343-3.479,9.756-6.806,1.809-2.5,2.223-5.627,2.841-8.559a11.421,11.421,0,0,1,.42-1.543c-.157.434,0,.014.105-.18.059-.106.126-.206.191-.308.175-.276-.369.417.025-.012.085-.092.18-.177.273-.26-.074.066-.392.254-.008.018.114-.07.611-.341.5-.29a10.785,10.785,0,0,1,2.009-.512c3.643-.557,7.288-.03,9.963-3.143,2.7-3.14,3.713-8.974.332-12.047l-1.7,4.1a9.548,9.548,0,0,0,8.439-4.124c2.068-3.288,1.195-7.295-.405-10.558l-.861,3.283c3.394-1.6,4.875-5.262,4.5-8.862-.308-2.988-1.431-6.4-3.721-8.476l.7,1.7a22.176,22.176,0,0,0-2.473-10.477,23.945,23.945,0,0,0-6.846-7.439c-5.23-3.741-11.8-2.4-17.342-.1-5.247,2.185-10.664,5.5-13.14,10.832a136.547,136.547,0,0,0-8.012,22.939c-1.114,4.234-2.209,8.484-3.711,12.6a44.422,44.422,0,0,1-6.2,11.439,2.417,2.417,0,0,0,.861,3.284,2.457,2.457,0,0,0,3.284-.861Z"/><path class="c" d="M108.211,179.107c5.9,1.376,11.9,2.409,17.761,3.946a2.4,2.4,0,0,0,1.276-4.629c-5.863-1.537-11.86-2.57-17.761-3.946a2.4,2.4,0,1,0-1.276,4.629Z"/><path class="c" d="M103.863,191.713c3.887.649,7.75,1.461,11.608,2.262,3.394.705,6.816,1.363,10.17,2.243,2.99.784,4.266-3.845,1.276-4.629-3.354-.879-6.776-1.538-10.17-2.242-3.858-.8-7.721-1.614-11.608-2.263a2.474,2.474,0,0,0-2.953,1.676,2.42,2.42,0,0,0,1.677,2.953Z"/><path class="c" d="M102.81,204.856c1.356.1,2.707.277,4.054.453l.471.062.5.068,1.379.193q1.474.21,2.946.431a80.4,80.4,0,0,1,8.5,1.444c2.99.787,4.265-3.842,1.276-4.629a82.2,82.2,0,0,0-8.716-1.476c-3.449-.516-6.924-1.1-10.406-1.346a2.4,2.4,0,1,0,0,4.8Z"/><path class="d" d="M45.229,251c9.184-14.279,18.566-28.693,20.585-31.908a1.528,1.528,0,0,1,1.86-.617c8.4,3.319,34.018,20.11,35.069,21.476.53.69,1.129,1.491.869,2.309-1.038,3.254-10.006,22.219-13.253,29.115Z"/><path class="c" d="M28.875,281.5c3.376-5.853,7.077-11.529,10.7-17.227q7.611-11.953,15.323-23.843c3.84-5.942,7.7-11.874,11.52-17.828q.387-.6.773-1.206c.144-.225.6-.706.617-.971a1.265,1.265,0,0,1-.733.332c-.681-.013-.573-.231-.233-.022.265.164.573.281.85.422.672.34,1.337.693,2,1.051,3.7,2,7.327,4.159,10.933,6.332,6.689,4.032,13.523,8.032,19.846,12.633.162.118.319.248.486.361-.838-.567-.2-.219-.115-.076a1.2,1.2,0,0,0,.181.173c-.513-.517.412.478.29.478-.493,0,.238-.773-.107-.222a10.128,10.128,0,0,0-.6,1.524c-.041.1-.272.648-.037.092-.077.182-.155.363-.233.545q-.3.706-.614,1.411c-1.891,4.3-3.876,8.564-5.861,12.823-4.956,10.632-9.821,21.341-15.446,31.639a155.4,155.4,0,0,1-11.675,18.466,99,99,0,0,1-12.188,13.876c-4.167,3.82-9.023,7.024-14.626,8.2a24.21,24.21,0,0,1-13.265-1.266,34.906,34.906,0,0,1-10.513-6.3,31.61,31.61,0,0,1-8.5-11.965A35.442,35.442,0,0,1,5.5,302.69a2.479,2.479,0,0,0-2.4-2.4c-1.164,0-2.572,1.106-2.4,2.4a38.445,38.445,0,0,0,6.277,17.029,38.069,38.069,0,0,0,11.218,10.624,35.849,35.849,0,0,0,11.654,4.745,28.332,28.332,0,0,0,18.251-2.45c5.61-2.753,10.357-7.119,14.519-11.712A135.4,135.4,0,0,0,75.49,304.219c7.493-11.438,13.285-23.853,19.093-36.2,2.218-4.714,4.429-9.432,6.6-14.169a94.669,94.669,0,0,0,4.657-10.692c1.162-3.7-2.443-5.84-4.988-7.553-3.4-2.291-6.875-4.48-10.355-6.649-4.139-2.581-8.305-5.119-12.517-7.579-1.787-1.044-3.582-2.074-5.4-3.067a21.313,21.313,0,0,0-4.562-2.245c-3.452-.875-5.253,3.358-6.779,5.725q-2.866,4.449-5.745,8.89-7.833,12.107-15.63,24.235c-4.484,7-8.986,13.984-13.3,21.083-.62,1.019-1.235,2.041-1.831,3.075-1.546,2.68,2.6,5.1,4.145,2.422Z"/><path class="c" d="M108.572,141.357a22.473,22.473,0,0,0,10.828,2.5c3.834-.024,7.757-.758,10.834-3.155a2.414,2.414,0,0,0,0-3.394,2.463,2.463,0,0,0-3.4,0c.7-.544.054-.056-.125.059-.222.142-.451.274-.685.4-.142.075-.919.416-.364.193-.311.125-.625.241-.944.343a16.955,16.955,0,0,1-5.676.758,17.726,17.726,0,0,1-5.418-.729c-.345-.1-.683-.227-1.024-.344-.111-.039-.219-.088-.33-.129.6.22.093.041-.024-.013q-.635-.3-1.254-.626a2.452,2.452,0,0,0-3.284.861,2.426,2.426,0,0,0,.861,3.283Z"/><path class="c" d="M118.4,115.567a51.908,51.908,0,0,1,1.223,5.593l-.086-.638a3.379,3.379,0,0,1,.021.772l.086-.638a1.975,1.975,0,0,1-.085.347l.242-.574a1.477,1.477,0,0,1-.123.224l.375-.486a1.191,1.191,0,0,1-.182.18l.485-.375a3.521,3.521,0,0,1-.442.234l.573-.242a3.2,3.2,0,0,1-.747.218l.638-.086a2.989,2.989,0,0,1-.7,0l.638.086c-.264-.037-.523-.1-.787-.137a2.657,2.657,0,0,0-1.85.242,2.4,2.4,0,0,0-.861,3.284,2.3,2.3,0,0,0,1.435,1.1c.559.075,1.1.219,1.672.244a5.265,5.265,0,0,0,2.412-.566,3.381,3.381,0,0,0,1.9-2.24,5.821,5.821,0,0,0-.027-2.465c-.3-1.8-.721-3.588-1.184-5.355a2.4,2.4,0,0,0-4.629,1.276Z"/><path class="c" d="M88.376,99.854c-.934,3.035-.325,10.016,5.425,10.611,7.6-.046,8-8.487,5.445-12.455C97.152,94.76,90.993,93.409,88.376,99.854Z"/><path class="c" d="M149.231,99.854c.934,3.035.326,10.017-5.424,10.611-7.6-.046-8-8.487-5.446-12.456C140.456,94.76,146.614,93.409,149.231,99.854Z"/></svg>