<?xml version="1.0" encoding="utf-8"?>
<!-- Uploaded to: SVG Repo, www.svgrepo.com, Generator: SVG Repo Mixer Tools -->
<svg width="800px" height="800px" viewBox="-17.73 0 291.142 291.142" xmlns="http://www.w3.org/2000/svg"><defs><style>.a{fill:#ffffff;}.b{fill:#211715;}.c{fill:#7a7473;}.d{fill:#f4b467;}</style></defs><path class="a" d="M39.456,238.676c1.37,4.38-3.055,12.709-5.328,14.681a17.942,17.942,0,0,1-12.481,4.952c-4.89.093-10.7-1.121-14.173-5.14-2.92-3.38-4.352-5.728-5.025-11.86-.312-2.842.842-11.847,3.255-16.248Z"/><path class="b" d="M37.142,239.314a5.5,5.5,0,0,1,.127,2.215,16.21,16.21,0,0,1-.885,3.373,23.454,23.454,0,0,1-2.829,5.466,3.219,3.219,0,0,1-.481.633,8.89,8.89,0,0,1-.643.659,18.11,18.11,0,0,1-3.247,2.325,15.125,15.125,0,0,1-6.93,1.9c-4.847.207-10.009-.837-13.294-4.663A16.672,16.672,0,0,1,4.8,240.2a35.128,35.128,0,0,1,.759-6.809,25.883,25.883,0,0,1,2.218-7.116c1.453-2.725-2.689-5.152-4.144-2.423C1.161,228.482.182,234.3.011,239.506a21.518,21.518,0,0,0,4.762,14.161c3.988,4.978,9.932,7.006,16.186,7.047a21.67,21.67,0,0,0,9.066-1.786,18.864,18.864,0,0,0,6.58-4.7,26.084,26.084,0,0,0,4.177-7.437c1.051-2.713,1.808-5.883.988-8.757-.846-2.965-5.479-1.7-4.628,1.276Z"/><path class="a" d="M249.957,225.061c2.413,4.4,3.567,13.406,3.255,16.248-.673,6.132-2.1,8.48-5.025,11.86-3.471,4.019-9.283,5.233-14.173,5.14a17.942,17.942,0,0,1-12.481-4.952c-2.274-1.972-6.7-10.3-5.328-14.681Z"/><path class="b" d="M213.891,238.038a13.364,13.364,0,0,0,.649,7.83,28.029,28.029,0,0,0,3.421,6.922c3.254,4.678,8.882,7.363,14.463,7.839,6,.511,12.98-.908,17.214-5.487a22.2,22.2,0,0,0,6.011-14.341,35.661,35.661,0,0,0-.789-8.008,30.519,30.519,0,0,0-2.831-8.944c-1.454-2.727-5.6-.3-4.144,2.423,1.964,3.684,2.722,8.521,2.942,12.731a16.835,16.835,0,0,1-3.158,11.047A13.486,13.486,0,0,1,242.3,254.5a19.162,19.162,0,0,1-6.9,1.405c-4.742.157-9.557-1.261-12.813-4.9a21.384,21.384,0,0,1-3.08-5.482,19.583,19.583,0,0,1-1.038-3.541,5.9,5.9,0,0,1,.05-2.664c.849-2.975-3.781-4.246-4.628-1.276Z"/><path class="a" d="M183.029,90.018a8.24,8.24,0,0,1,6.59-1.92,7.76,7.76,0,0,1,5.58,3.71,11.021,11.021,0,0,1,1.15,4.42,32.932,32.932,0,0,1-3.35,17.44,20.9,20.9,0,0,1-5.41,7.1c-1.79,1.43-4.808,1.81-7.287,1.8-.581,2.439-1.343,4.561-1.686,5.6-2.125,5.767-15.341,28.209-31,31.689l-32.772,2.1C104.549,160.5,95.1,153.942,87.294,144.6a56.387,56.387,0,0,1-10.908-21.7l-.615.154c-3.281.82-5.866-.832-7.7-2.291a20.917,20.917,0,0,1-5.409-7.1,32.912,32.912,0,0,1-3.356-17.446,10.979,10.979,0,0,1,1.15-4.418,7.768,7.768,0,0,1,5.585-3.713,8.226,8.226,0,0,1,6.582,1.926S72.578,40.3,127.393,40.3C188.133,40.3,183.029,90.018,183.029,90.018Z"/><path class="c" d="M173.918,28.9c8.472,4.643,12.654,12.689,15.383,19.671,3.757,9.588,4.945,25.29,1.595,38.3l-.365,1.419a7.618,7.618,0,0,0-.912-.193,8.031,8.031,0,0,0-7.444,2.852,45.056,45.056,0,0,0-5.947-16.065c-2.84-4.748-10.409-13.752-18.062-17.025l-10.549-3.639c-8.558,6.092-23.134,13.983-29.259,14.157-.55.016-.833-5.679-1.021-9.285-.081-1.539-1.664-2.68-2.815-1.8-10.3,7.867-24.355,21.8-34.077,30.849L72.628,90.02a8.226,8.226,0,0,0-6.582-1.926,7.642,7.642,0,0,0-1.247.3c-4.438-10.774-4.291-28.9-.918-41.551,3.38-12.7,11.339-25.012,22.617-30.164L96.6,9.766C106.45,1.253,133.467.748,145.783,5.45c9.51,3.63,16.879,9.491,20.368,16.579Z"/><path class="b" d="M168.223,20.818c-5.077-10.132-16.429-16.943-27.253-19.24a76.872,76.872,0,0,0-31.754.162c-5.1,1.108-10.282,2.9-14.309,6.329a2.421,2.421,0,0,0,0,3.394,2.45,2.45,0,0,0,3.394,0,12.824,12.824,0,0,1,1.845-1.309,24.818,24.818,0,0,1,2.777-1.45,38.577,38.577,0,0,1,6.049-1.983,67.279,67.279,0,0,1,14.663-1.813c9.642-.222,19.1.945,27.64,5.74,5.308,2.98,10.045,7.087,12.8,12.592,1.384,2.762,5.526.334,4.144-2.422Z"/><path class="b" d="M66.669,86.606c-3.413-9.476-3.42-20.242-2.212-30.127,1.2-9.8,4.535-19.521,10.62-27.39A34.481,34.481,0,0,1,87.709,18.746a2.42,2.42,0,0,0,.861-3.283,2.455,2.455,0,0,0-3.284-.861c-9.931,4.612-16.909,13.98-21.06,23.863-4.217,10.036-5.59,21.272-5.156,32.1a58.118,58.118,0,0,0,2.97,17.32,2.463,2.463,0,0,0,2.953,1.676,2.42,2.42,0,0,0,1.676-2.952Z"/><path class="b" d="M172.707,30.975c6.644,3.7,10.882,10,13.742,16.9A59.135,59.135,0,0,1,190.458,71.3a63.981,63.981,0,0,1-1.876,14.935c-.759,3,3.869,4.273,4.628,1.276a73.084,73.084,0,0,0,1.185-28.6A52.341,52.341,0,0,0,185.938,36.8,32.632,32.632,0,0,0,175.13,26.83c-2.7-1.506-5.124,2.639-2.423,4.145Z"/><path class="b" d="M146.406,52.149a120.565,120.565,0,0,1-15.213,9.131,69.563,69.563,0,0,1-7.236,3.25,33.652,33.652,0,0,1-3.208,1.033c-.5.131-1.006.234-1.514.335-.108.019-.216.037-.325.053.256-.033.3-.039.122-.02-.281.076-.881-.094-.083.12l1.059.617c.273.238.453,1.054.365.458-.041-.274-.107-.546-.146-.821.049.347-.008-.111-.012-.15q-.031-.3-.06-.591c-.053-.546-.1-1.093-.136-1.641-.142-1.953.058-4.212-.489-6.1a4.353,4.353,0,0,0-5.263-3.054,9.1,9.1,0,0,0-2.76,1.848q-1.172.922-2.321,1.873c-6.96,5.734-13.52,11.949-20.062,18.148-3.455,3.273-6.893,6.562-10.376,9.805-2.265,2.11,1.135,5.5,3.394,3.394,9.945-9.26,19.552-18.925,30.019-27.607q.892-.741,1.8-1.467a10.418,10.418,0,0,0,1.516-1.2c.365-.443.181-.039-.278-.2-.562-.2-.384-.146-.276-.267a7.927,7.927,0,0,0,.124,2c.136,2.46.013,5.364.822,7.717.993,2.886,4.44,1.875,6.661,1.246A54.13,54.13,0,0,0,130.368,67a116.278,116.278,0,0,0,18.46-10.708,2.464,2.464,0,0,0,.861-3.283,2.419,2.419,0,0,0-3.283-.861Z"/><path class="b" d="M156.954,59.932c6.071,2.661,11.195,7.8,15.1,13.063a41.709,41.709,0,0,1,8.029,20.37,2.468,2.468,0,0,0,2.4,2.4,2.417,2.417,0,0,0,2.4-2.4A46.251,46.251,0,0,0,176.2,70.572c-4.386-5.894-9.989-11.79-16.822-14.785a2.479,2.479,0,0,0-3.284.861,2.419,2.419,0,0,0,.861,3.284Z"/><path class="b" d="M178.651,117.335a28.373,28.373,0,0,1-1.412,7.324c-.254.836-.53,1.664-.811,2.491-.068.2-.138.4-.208.595-.254.72.119-.225-.092.229a64.631,64.631,0,0,1-3.691,6.808,67.48,67.48,0,0,1-14.676,17.223,27.071,27.071,0,0,1-10.784,5.536c-3.009.691-1.736,5.32,1.276,4.629,8.213-1.887,15.043-7.908,20.4-14.135a74.159,74.159,0,0,0,11.462-17.293,36.089,36.089,0,0,0,3.333-13.407c.1-3.09-4.7-3.086-4.8,0Z"/><path class="b" d="M74.325,88.323A10.759,10.759,0,0,0,62.69,86.658c-4.046,1.885-5.5,5.824-5.815,10.014-.62,8.357,1.955,17.833,7.7,24.1,3.057,3.333,7.234,5.619,11.835,4.608,3.016-.663,1.74-5.292-1.276-4.629-3.259.717-6.273-2.083-8.09-4.468a28.31,28.31,0,0,1-4.9-11.549,29.547,29.547,0,0,1-.545-6.267c.03-1.839.059-3.97,1.027-5.594,1.678-2.818,5.9-3.212,8.308-1.151a2.463,2.463,0,0,0,3.394,0,2.421,2.421,0,0,0,0-3.394Z"/><path class="b" d="M71.7,110.627a78.036,78.036,0,0,0,6.365,23.86,58.211,58.211,0,0,0,20.859,23.82,38.9,38.9,0,0,0,15.282,5.964,2.48,2.48,0,0,0,2.953-1.677,2.418,2.418,0,0,0-1.677-2.952c-9.324-1.378-17.261-6.792-23.635-13.523a55.291,55.291,0,0,1-13.335-24.57q-.778-3.027-1.308-6.111-.242-1.394-.441-2.8c-.1-.678-.144-1.04-.263-2.015a2.475,2.475,0,0,0-2.4-2.4,2.415,2.415,0,0,0-2.4,2.4Z"/><path class="b" d="M184.726,91.715a5.717,5.717,0,0,1,8.221,1c1.076,1.6,1.087,3.894,1.118,5.746a30.158,30.158,0,0,1-5.207,17.487,10.019,10.019,0,0,1-3.625,3.453,12.175,12.175,0,0,1-4.934.755c-3.089,0-3.094,4.8,0,4.8,3.961,0,7.52-.859,10.365-3.744a28.537,28.537,0,0,0,6.233-10.656,34.865,34.865,0,0,0,1.957-12.542c-.129-4.222-1.042-8.262-4.759-10.73a10.7,10.7,0,0,0-12.763,1.035,2.419,2.419,0,0,0,0,3.394,2.45,2.45,0,0,0,3.394,0Z"/><path class="b" d="M116.784,135.855c3.086,3.021,7.981,3.892,12.121,3.889s9.036-.867,12.124-3.889c2.211-2.165-1.184-5.558-3.394-3.395-.1.1-.606.529-.317.3.269-.212-.385.257-.537.351-.27.166-.549.319-.832.461-.19.1-.384.188-.579.272.322-.139-.042.013-.181.063a18.325,18.325,0,0,1-6.284,1.038,17.9,17.9,0,0,1-6.174-1c-.017-.006-.725-.293-.293-.105-.163-.071-.325-.147-.485-.226-.315-.155-.624-.323-.923-.507-.23-.142-.446-.3-.668-.452.605.413-.037-.053-.184-.2-2.209-2.162-5.606,1.229-3.394,3.395Z"/><path class="b" d="M128.385,112.957a49.834,49.834,0,0,1,1.174,5.369l-.086-.638a3.281,3.281,0,0,1,.02.741l.086-.638a1.82,1.82,0,0,1-.082.333l.242-.573a1.3,1.3,0,0,1-.117.214l.375-.486a1.1,1.1,0,0,1-.175.173l.485-.375a3.382,3.382,0,0,1-.425.225l.573-.242a3.094,3.094,0,0,1-.716.209l.638-.085a2.859,2.859,0,0,1-.673,0l.638.086c-.254-.035-.5-.1-.756-.131a2.657,2.657,0,0,0-1.85.242,2.4,2.4,0,0,0-.861,3.283,2.292,2.292,0,0,0,1.435,1.1c.546.074,1.076.214,1.631.238a5.141,5.141,0,0,0,2.364-.556,3.334,3.334,0,0,0,1.871-2.208,5.683,5.683,0,0,0-.025-2.418c-.293-1.729-.692-3.443-1.137-5.14a2.4,2.4,0,0,0-4.629,1.276Z"/><path class="b" d="M99.815,98.473c-.9,2.913-.312,9.615,5.207,10.186,7.295-.044,7.683-8.147,5.228-11.957C108.239,93.583,102.327,92.286,99.815,98.473Z"/><path class="b" d="M156.983,98.473c.9,2.914.313,9.616-5.207,10.186-7.3-.044-7.683-8.147-5.228-11.957C148.559,93.583,154.471,92.286,156.983,98.473Z"/><path class="d" d="M125.642,158.272c-14.593-9.781-72.1-20.328-87.286-20.675a1.966,1.966,0,0,0-2.015,1.966C36.307,157.645,36,245.838,35.9,263.347a1.987,1.987,0,0,0,1.781,1.961c14.257,1.188,74.379,16.755,87.984,23.049a5.575,5.575,0,0,0,4.148-.014c13.566-6.389,73.281-22.264,88.124-23.053a1.965,1.965,0,0,0,1.824-1.955c-.1-17.545-.407-105.774-.441-123.8a1.929,1.929,0,0,0-1.921-1.929c-17.254-.124-72.25,11.616-87.609,20.8A4.241,4.241,0,0,1,125.642,158.272Z"/><path class="a" d="M42.846,129.515c11.829.6,66.961,9.9,84.859,25.174,19.064-15.424,65.42-24.411,84.186-25.526a1.018,1.018,0,0,1,1.074,1.021v7.589C192.2,139.212,144,149.908,129.786,158.412a4.243,4.243,0,0,1-4.145-.141c-13.67-9.161-65-18.995-83.914-20.49v-.046c0-2.089.031-5.512.047-7.218A1.015,1.015,0,0,1,42.846,129.515Z"/><path class="b" d="M44.127,137.735q0-1.946.02-3.89.008-.811.016-1.623c0-.3.025-.607.008-.907-.049-.916.29-.03-.444.31l-1.212.328a22.156,22.156,0,0,1,4.78.364c.468.053.936.11,1.4.168l.743.095c.157.02.991.131.427.055q1.8.243,3.59.516c5.824.882,11.62,1.947,17.385,3.149,13.391,2.79,26.827,6.195,39.514,11.374a86.669,86.669,0,0,1,8.732,4.126c1.337.734,2.65,1.514,3.921,2.358q.841.558,1.655,1.156.175.129.349.261c.568.428-.357-.291.19.149q.407.326.8.662a2.49,2.49,0,0,0,3.394,0,54.484,54.484,0,0,1,6.022-4.072c2.442-1.437,4.969-2.728,7.54-3.918a144.846,144.846,0,0,1,17.32-6.555,254.172,254.172,0,0,1,36.634-8.531c2.917-.464,5.243-.793,8.059-1.119q1.859-.216,3.724-.386a18.4,18.4,0,0,1,3.526-.206l-1.211-.327c-.86-.407-.373-1.591-.451-.731-.025.275,0,.566,0,.842v6.465c0,3.089,4.8,3.094,4.8,0v-6.559c0-1.357-.056-2.641-1.146-3.648-1.3-1.2-3.155-.837-4.76-.7-6.217.52-12.408,1.446-18.548,2.54-15.129,2.694-30.278,6.451-44.536,12.25-7.206,2.93-14.276,6.366-20.367,11.263H129.4c-4.772-4.044-10.435-6.859-16.164-9.278A176.994,176.994,0,0,0,91.9,136.448a305.306,305.306,0,0,0-40.255-8.373c-2.439-.336-4.883-.657-7.338-.859-1.784-.147-3.579-.058-4.543,1.76-.616,1.161-.4,2.76-.409,4.037-.015,1.574-.027,3.148-.028,4.722,0,3.088,4.8,3.093,4.8,0Z"/><path class="b" d="M126.853,156.2A54.4,54.4,0,0,0,115,150.763c-5.5-1.972-11.135-3.58-16.789-5.051-12.489-3.249-25.169-5.83-37.9-7.9-5.193-.845-10.406-1.612-15.639-2.156-1.8-.187-3.613-.35-5.425-.427a4.95,4.95,0,0,0-4.208,1.461,5.42,5.42,0,0,0-1.1,3.856q-.026,12.078-.069,24.156-.056,17.885-.119,35.77-.063,18.016-.133,36.033-.048,12.473-.108,24.946c0,.581-.027,1.167-.009,1.748a4.464,4.464,0,0,0,3.542,4.425c.837.167,1.727.195,2.575.3.4.05-.566-.083.1.015l.543.078c.469.069.938.143,1.406.219,4.584.743,9.134,1.706,13.669,2.706,12.073,2.664,24.068,5.712,35.991,8.981,10.112,2.772,20.317,5.556,30.129,9.28q.573.218,1.142.443.285.113.568.228c.109.044.754.314.381.156-.324-.138.5.22.684.3a8.667,8.667,0,0,0,2.765.78,9.063,9.063,0,0,0,4.722-1.01c.145-.065.292-.127.438-.192.086-.038.173-.074.26-.111.285-.124-.462.191-.168.071.386-.158.772-.317,1.16-.47,4.15-1.643,8.406-3.025,12.661-4.367,11.789-3.715,23.729-6.976,35.714-10,10.474-2.638,21.046-5.271,31.74-6.865.206-.031.413-.061.619-.09.237-.034.772-.1.211-.031.423-.055.846-.109,1.269-.157.731-.082,1.462-.129,2.194-.194a4.469,4.469,0,0,0,4.331-4.2c.039-.624.008-1.257,0-1.883q-.027-5.136-.048-10.273-.068-15.9-.124-31.8-.069-18.592-.131-37.186-.053-15.777-.1-31.553-.015-5.03-.027-10.06a6.719,6.719,0,0,0-.544-3.308,4.7,4.7,0,0,0-4.488-2.232c-2,.021-4,.163-6,.346a288.173,288.173,0,0,0-35.917,6.078c-12.219,2.71-24.5,5.76-36.232,10.179-2.191.825-4.366,1.709-6.486,2.7-.863.4-1.717.829-2.552,1.289-.893.493-1.645,1-2.655.4-2.66-1.583-5.077,2.565-2.422,4.145a6.662,6.662,0,0,0,6,.405c.919-.405,1.775-.966,2.673-1.421a55.517,55.517,0,0,1,5.6-2.46c5.251-2.043,10.645-3.717,16.061-5.261a384.212,384.212,0,0,1,38.14-8.719c5.522-.98,10.681-1.794,16.006-2.356,2.1-.222,4.217-.405,6.332-.486q.64-.024,1.282-.034a4.388,4.388,0,0,0,.562,0c-.024,0,.309,0,.31,0-.056.18-.447-.3-.415-.288-.216-.061.023-.288-.064.024a1.95,1.95,0,0,0,0,.432c0,.311,0,.623,0,.934q.027,12.086.069,24.17.057,17.568.118,35.135.063,17.766.131,35.532.048,12.456.106,24.912.006.927.01,1.852a2.4,2.4,0,0,0,0,.37c.07.419-.1.069.083-.013.5-.224.215-.166-.261-.129-1.8.14-3.6.395-5.388.669-4.689.72-9.341,1.684-13.973,2.7-11.993,2.624-23.9,5.685-35.721,8.986-9.881,2.758-19.851,5.547-29.425,9.262q-1.35.525-2.682,1.1c-.313.134-.627.268-.937.411-.1.048-.561.219-.181.091a3.542,3.542,0,0,1-1.135.2,3.452,3.452,0,0,1-1.137-.186c.307.1.024,0-.122-.059-.48-.2-.955-.414-1.435-.615q-1.11-.464-2.234-.89c-4.17-1.587-8.43-2.939-12.692-4.25-11.562-3.556-23.255-6.7-34.986-9.646-10.3-2.586-20.656-5.135-31.127-6.925-1.774-.3-3.557-.577-5.346-.775-.125-.014-.778-.164-.864-.086.446-.4.449.965.505.021.037-.619.007-1.249.01-1.868q.027-5.153.048-10.3.068-15.657.123-31.314.068-18.374.129-36.746.051-15.577.1-31.154.015-5.084.027-10.165c0-.294.189-1.566,0-1.773.329.369-.916.24.014.393a11.007,11.007,0,0,0,1.151.051c1.862.1,3.72.28,5.573.482q1.688.184,3.372.4l.809.1c.1.012.948.125.546.071q.981.132,1.961.272,4.137.59,8.259,1.28,9.22,1.533,18.373,3.452c11.844,2.476,23.758,5.242,35.156,9.355q1.656.6,3.292,1.251c.275.11.548.222.821.335.384.158-.2-.091.32.135.473.207.945.414,1.414.63a34.182,34.182,0,0,1,4.629,2.518C127.01,162.059,129.417,157.9,126.853,156.2Z"/><path class="b" d="M125.562,167.305c0,12.548-.053,25.1-.089,37.646q-.075,25.826-.142,51.65-.024,10.409-.032,20.815c0,3.089,4.8,3.094,4.8,0q0-21.4.089-42.794.069-25.1.142-50.2.021-8.557.032-17.116c0-3.089-4.8-3.094-4.8,0Z"/><path class="a" d="M10.737,199.429c1.133-1.458,2.651-3.454,4.209-4.233,4.774-3.9,15.467-2.589,20.526-.9,3.617,1.205,8.2,3.092,10.465,6.212,2.156,2.976,2.357,6.812-2.965,7.678,2.139.977,4.26,2.281,5.262,3.937,1.861,3.076,1.063,6.875-2.511,8.4,3.217,2.055,5.4,9.719-1.768,10.769,2.482,3.82,1.167,6.548-2.142,7.375-2.871.717-7.579-.7-12.415.961-6.029,2.966-11.534,2.635-15.431-.144C7.9,235.15,6.2,227.318,6.155,218.97a46,46,0,0,1,1.263-12.326c.586-2.121,1.4-4.816,2.81-6.567C10.387,199.879,10.557,199.661,10.737,199.429Z"/><path class="b" d="M44.883,210.2c2.716-.917,4.892-2.925,4.874-5.967a9.883,9.883,0,0,0-3.261-6.727c-3.657-3.533-9.143-5.513-14.065-6.47-4.857-.945-10.394-1.391-15.156.255-5.084,1.757-9.236,6.449-11.147,11.473-2.322,6.1-2.677,12.943-2.267,19.4.356,5.613,1.6,11.342,5.143,15.848a15.743,15.743,0,0,0,15.49,5.772,21.447,21.447,0,0,0,4.8-1.5,13.592,13.592,0,0,1,5.126-1.108c2.742-.084,5.691.508,8.367-.3,3.181-.964,5.262-3.668,4.748-7.045-.505-3.312-2.9-5.365-5.893-6.5a30.713,30.713,0,0,0-9.766-2.033,50.42,50.42,0,0,0-11.515,1.513c-3.024.622-1.744,5.25,1.276,4.628a56.129,56.129,0,0,1,8.122-1.309,23.308,23.308,0,0,1,7.833.983c1.495.424,3.58.744,4.622,2.029a3.383,3.383,0,0,1,.642,1.883c-.064.537-.39.846-1.024,1.113-1.866.783-4.475.224-6.544.225a24.6,24.6,0,0,0-4.206.35,25.21,25.21,0,0,0-4.5,1.524c-4.268,1.584-8.951,1.524-12.429-1.7-3.215-2.98-4.619-7.288-5.216-11.527a47.862,47.862,0,0,1,.37-15.966,21.608,21.608,0,0,1,2.369-6.873,16.3,16.3,0,0,1,4.2-4.758,12.031,12.031,0,0,1,4.76-2.052,24.162,24.162,0,0,1,6-.269,32.879,32.879,0,0,1,12.364,3.135c2.047.989,4.209,2.232,5.381,4.257a4.531,4.531,0,0,1,.5,1.178c.022.075.108.635.075.3,0,.024-.034.758.026.391a2.25,2.25,0,0,1-.135.487c.148-.34-.259.242-.062.047a2.938,2.938,0,0,1-1.169.677c-2.912.983-1.663,5.62,1.276,4.628Z"/><path class="b" d="M20.232,207.84a29.9,29.9,0,0,1,9.084-.474,38.412,38.412,0,0,1,8.738,1.5c2.491.768,5.333,1.76,7.292,3.538,1.794,1.629,2.068,4.372-.179,5.718-2.647,1.586-.236,5.738,2.423,4.145a8.08,8.08,0,0,0,3.054-10.734c-1.742-3.545-5.84-5.314-9.336-6.614a41.66,41.66,0,0,0-10.851-2.265,35.392,35.392,0,0,0-11.5.556c-3,.736-1.728,5.366,1.276,4.629Z"/><path class="b" d="M19.279,219.985a49.28,49.28,0,0,1,21.113.6c2.329.587,4.669,1.779,5.543,3.942.771,1.909.608,3.34-1.372,4.211a2.415,2.415,0,0,0-.861,3.283,2.459,2.459,0,0,0,3.283.861c3.4-1.493,4.661-5.082,3.9-8.551a10.953,10.953,0,0,0-6.8-7.583,37.928,37.928,0,0,0-11.826-2.23,56.42,56.42,0,0,0-14.259.84,2.423,2.423,0,0,0-1.676,2.952,2.448,2.448,0,0,0,2.952,1.676Z"/><path class="a" d="M244.923,199.429c-1.133-1.458-2.65-3.454-4.208-4.233-4.774-3.9-15.467-2.589-20.527-.9-3.616,1.205-8.2,3.092-10.464,6.212-2.156,2.976-2.357,6.812,2.965,7.678-2.139.977-4.26,2.281-5.262,3.937-1.861,3.076-1.063,6.875,2.511,8.4-3.217,2.055-5.4,9.719,1.768,10.769-2.482,3.82-1.167,6.548,2.142,7.375,2.871.717,7.579-.7,12.415.961,6.028,2.966,11.534,2.635,15.431-.144,6.069-4.328,7.766-12.16,7.812-20.508a46,46,0,0,0-1.263-12.326c-.586-2.121-1.4-4.816-2.81-6.567C245.274,199.879,245.1,199.661,244.923,199.429Z"/><path class="b" d="M212.054,205.575a3.507,3.507,0,0,1-.971-.48c-.12-.1-.338-.426-.26-.244-.2-.463-.156-.37-.109-.878-.028.3.033-.134.039-.164a4.649,4.649,0,0,1,.256-.813A9.4,9.4,0,0,1,215,199.12a31.127,31.127,0,0,1,11.362-3.767c3.584-.492,8-.675,11.257.761,3.531,1.555,6.5,5.406,7.732,9.218a45.082,45.082,0,0,1,1.69,16.045c-.213,4.465-1.011,9.116-3.55,12.89a11,11,0,0,1-10.878,4.928c-2.831-.406-5.244-2-8.038-2.472a45.883,45.883,0,0,0-8.17-.243,5.689,5.689,0,0,1-2.742-.415,1.2,1.2,0,0,1-.848-1.275c.111-1.981,2.047-2.727,3.7-3.227a27.179,27.179,0,0,1,8.114-1.463,48.412,48.412,0,0,1,9.39,1.349,2.458,2.458,0,0,0,2.952-1.676,2.422,2.422,0,0,0-1.676-2.952,58.065,58.065,0,0,0-10.243-1.515,30.628,30.628,0,0,0-9.191,1.448c-2.62.747-5.258,1.81-6.739,4.244a6.689,6.689,0,0,0,.379,7.85c1.856,2.121,4.8,2.487,7.452,2.421,3.259-.082,6.348-.291,9.409,1.024,5.868,2.52,12.453,2.553,17.6-1.548,4.406-3.511,6.578-9.013,7.389-14.448a51.958,51.958,0,0,0-.569-19.41,21.872,21.872,0,0,0-3.655-8.507c-.813-1.041-1.6-2.108-2.506-3.075A18.613,18.613,0,0,0,241.5,192.8c-4.035-2.81-9.778-2.845-14.469-2.325-5.535.613-11.436,2.2-16,5.512-2.362,1.711-4.519,4.1-5,7.084-.567,3.506,1.525,6.044,4.752,7.134,2.933.991,4.192-3.644,1.276-4.628Z"/><path class="b" d="M236.705,203.211a35.392,35.392,0,0,0-11.5-.556,41.651,41.651,0,0,0-10.851,2.265c-3.5,1.3-7.595,3.069-9.336,6.614a8.08,8.08,0,0,0,3.054,10.734c2.657,1.591,5.073-2.557,2.423-4.145-2.245-1.344-1.975-4.088-.179-5.718,1.959-1.778,4.8-2.77,7.292-3.538a38.467,38.467,0,0,1,8.738-1.5,29.864,29.864,0,0,1,9.084.474c3,.736,4.279-3.892,1.276-4.629Z"/><path class="b" d="M237.658,215.357a56.33,56.33,0,0,0-14.259-.84,37.957,37.957,0,0,0-11.826,2.23,10.961,10.961,0,0,0-6.8,7.583c-.76,3.47.5,7.057,3.9,8.551a2.475,2.475,0,0,0,3.283-.861,2.417,2.417,0,0,0-.861-3.283c-1.979-.871-2.15-2.285-1.372-4.211.874-2.164,3.215-3.352,5.543-3.942a49.186,49.186,0,0,1,21.113-.6,2.462,2.462,0,0,0,2.952-1.676,2.422,2.422,0,0,0-1.676-2.952Z"/></svg>