<?xml version="1.0" encoding="utf-8"?>
<!-- Uploaded to: SVG Repo, www.svgrepo.com, Generator: SVG Repo Mixer Tools -->
<svg width="800px" height="800px" viewBox="-40.24 0 358.605 358.605" xmlns="http://www.w3.org/2000/svg"><defs><style>.a{fill:#ffffff;}.b{fill:#645d5c;}.c{fill:#211715;}.d{fill:none;stroke:#211715;stroke-miterlimit:10;stroke-width:1.2px;}</style></defs><path class="a" d="M247.556,351.59c7.111-2.16,14.834-11.581,16-27.156.675-19.834-2.413-46.593-7.349-64.161-.905-4.514-1.739-8.157-2.483-10.523-2.988-9.472-6.03-19.067-10.438-27.923a40.057,40.057,0,0,0-11.73-15.572A82.528,82.528,0,0,0,213.2,195.019c-8.677-3.541-16.634-7.031-25.287-10.72-8.269,6.767-31.227,13.511-48.139,13.469-18.555-.046-38.427-6.976-48.78-13.88-12.833,4.688-28.987,10.671-40.373,17.125C38.607,207.5,31.89,218.691,27.743,230.051c-4.678,12.414-15.687,51.291-17.832,69.163-1.619,13.493-1.228,22.722,3.09,35.5,1.108,3.179,7.483,11.487,17.1,13.359,8.012,1.559,18.319.742,24.462-4.178a31.933,31.933,0,0,0,5.858-6.629l-.131,1.9c-.02.22-.52,8.26-1.05,16.87H232.615l-.281-2.727a44.7,44.7,0,0,0,15.222-1.714"/><path class="a" d="M93.048,185.179c4.87-2.24,10.44-4.84,10.64-4.91,5.2-1.88,4.99-5.22,5.65-8.96a72.875,72.875,0,0,0,.98-7.567A58.19,58.19,0,0,1,96.83,151.66a65.423,65.423,0,0,1-12.049-22.17l-1.241.326c-3.041.819-5.363-.8-7.215-2.28a21.162,21.162,0,0,1-5.475-7.186,33.314,33.314,0,0,1-3.4-17.658,11.118,11.118,0,0,1,1.164-4.472,8.033,8.033,0,0,1,13.708-.013A363.83,363.83,0,0,1,125.1,56.016c.089,1.294,3.523,13.146,4.288,13.54,1.106.57,16.871-12.294,21.571-15.651,3.1.274,6.14.765,7.937,1.086l2.76.708c6.081,1.56,10.447,4.678,15.748,11.539,6.133,7.936,12.779,22.572,14.68,32.5l1.655-1.5A8.325,8.325,0,0,1,200.4,96.3a7.865,7.865,0,0,1,5.654,3.759,11.118,11.118,0,0,1,1.164,4.472,33.323,33.323,0,0,1-3.4,17.658,21.172,21.172,0,0,1-5.475,7.186c-1.852,1.477-3.711,2.315-6.4,1.5l-1.251-.415c-.534,2-1.132,3.674-1.427,4.567-1.777,4.824-11.218,21.169-23.386,28.691.187,2.539.517,5.073.958,7.6.65,3.74.45,7.08,5.65,8.96.25.09,8.21,3.86,12.66,5.97,0,0-13.793,24.027-48.459,24.027S93.048,185.179,93.048,185.179Z"/><path class="b" d="M177.977,24.151a12.619,12.619,0,0,0,3.082,3.374c1.111,1,2.667,1.555,4.255,2.63,7.229,3.2,14.734,14.45,17.166,22.233,3.877,12.406,4.284,33.294.418,44.719a8,8,0,0,0-2.5-.81,8.325,8.325,0,0,0-6.662,1.949l-1.655,1.5c-1.9-9.932-8.547-24.568-14.68-32.5-5.3-6.861-9.667-9.979-15.748-11.539l-2.76-.708c-1.8-.321-4.835-.812-7.937-1.086-4.7,3.357-20.465,16.221-21.571,15.651-.765-.394-4.2-12.246-4.288-13.54A363.83,363.83,0,0,0,82.325,98.207a7.883,7.883,0,0,0-8.055-3.746,7.024,7.024,0,0,0-1.428.364C68.5,89.71,68.387,68.02,71.185,56.411A55.087,55.087,0,0,1,88.721,28.1c-1.09.047-6.276.506-6.463-.2S91.49,15.98,105.289,11.926c7.011-2.06,12.395-3.274,20.659-3.118-1.545-.759-6.856-2.674-7.569-3.851,3.327-2.277,10.477-2.642,14.508-2.542,16.724.413,39.072,8.379,45.035,21.8"/><path class="c" d="M57.891,339.161c-.458,5.613-.7,11.25-1.05,16.87a2.4,2.4,0,0,0,4.8,0c.346-5.62.592-11.257,1.05-16.87a2.42,2.42,0,0,0-2.4-2.4,2.449,2.449,0,0,0-2.4,2.4Z"/><path class="c" d="M46.288,237.719c.755,5.984,1.615,11.952,2.41,17.93a2.48,2.48,0,0,0,2.4,2.4c1.164,0,2.572-1.106,2.4-2.4-.8-6.053-1.656-11.956-2.41-17.93a2.478,2.478,0,0,0-2.4-2.4,2.414,2.414,0,0,0-2.4,2.4Z"/><path class="c" d="M219.721,355.931c-.092-1.538-.145-3.085-.29-4.62a2.678,2.678,0,0,0-.7-1.7,2.4,2.4,0,0,0-3.394,0,2.344,2.344,0,0,0-.7,1.7c.145,1.535.2,3.082.29,4.62a2.539,2.539,0,0,0,.7,1.7,2.4,2.4,0,0,0,3.394,0,2.391,2.391,0,0,0,.7-1.7Z"/><path class="c" d="M222,293.439c2.451-19.122,4.985-38.233,7.476-57.349.286-2.2.581-4.392.844-6.591a2.413,2.413,0,0,0-2.4-2.4,2.458,2.458,0,0,0-2.4,2.4c-1.831,15.333-4,30.63-5.993,45.942q-1.172,9-2.327,18a2.412,2.412,0,0,0,2.4,2.4,2.461,2.461,0,0,0,2.4-2.4Z"/><path class="c" d="M195.434,99.943a5.806,5.806,0,0,1,8.365,1.019c1.008,1.507,1.067,3.58,1.122,5.332a29.763,29.763,0,0,1-.377,5.971,30.742,30.742,0,0,1-4.2,11.213c-1.639,2.593-4.332,6.026-7.764,5.076-2.982-.825-4.254,3.805-1.276,4.629,8.593,2.378,14.256-7.758,16.549-14.482a35.293,35.293,0,0,0,1.866-12.407c-.134-4.249-1.061-8.306-4.8-10.79a10.784,10.784,0,0,0-12.881,1.045,2.42,2.42,0,0,0,0,3.394,2.448,2.448,0,0,0,3.394,0Z"/><path class="c" d="M189.331,124.059a28.323,28.323,0,0,1-1.365,7.206c-.256.852-.537,1.7-.82,2.539q-.133.4-.276.8c-.028.078-.063.154-.092.231-.169.456.244-.543.031-.07a60.351,60.351,0,0,1-3.765,6.961,68.512,68.512,0,0,1-14.751,17.356,27.54,27.54,0,0,1-11.044,5.7c-3.01.692-1.736,5.321,1.276,4.629,8.368-1.922,15.316-8.083,20.759-14.439A74.9,74.9,0,0,0,190.77,137.6a36.516,36.516,0,0,0,3.361-13.537c.1-3.09-4.7-3.086-4.8,0Z"/><path class="c" d="M82.63,94.713a10.85,10.85,0,0,0-11.741-1.68c-3.994,1.876-5.512,5.715-5.853,9.879-.683,8.326,1.8,17.527,7.217,23.976,2.936,3.494,7.2,6.348,11.925,5.242,3.006-.7,1.733-5.333-1.276-4.628-3.278.768-6.481-2.765-8.126-5.171A30.551,30.551,0,0,1,69.738,104.9c.032-1.869.052-4.158,1.133-5.774a5.8,5.8,0,0,1,8.365-1.018,2.463,2.463,0,0,0,3.394,0,2.422,2.422,0,0,0,0-3.4Z"/><path class="c" d="M79.892,118.278c2.326,18.787,12.92,37.209,29.054,47.438a39.187,39.187,0,0,0,15.132,5.823,2.479,2.479,0,0,0,2.952-1.676,2.418,2.418,0,0,0-1.676-2.953c-9.242-1.365-17.15-6.651-23.532-13.272a63.2,63.2,0,0,1-14.61-24.421q-.978-3.029-1.667-6.139-.3-1.346-.533-2.7-.108-.619-.2-1.241-.045-.3-.087-.592c.059.42-.018-.149-.032-.264a2.476,2.476,0,0,0-2.4-2.4,2.415,2.415,0,0,0-2.4,2.4Z"/><path class="c" d="M149.831,51.771c-5.138,3.663-9.877,7.636-14.9,11.384-1.969,1.47-3.974,2.822-6.044,4.134-.432.275.45-.154.183-.076-.143.042-.3.027.149,0a2.157,2.157,0,0,1,1.794.594c.253.22.3.552.162.149-.079-.239-.3-.685-.086-.158-.513-1.288-.945-2.607-1.363-3.929q-.813-2.574-1.528-5.18c-.179-.653-.355-1.308-.515-1.966-.058-.24-.109-.482-.168-.722-.127-.522-.057-.365-.021.018a2.436,2.436,0,0,0-4.1-1.7A364.79,364.79,0,0,0,87.964,88.212Q83.77,92.8,79.745,97.546a2.465,2.465,0,0,0,0,3.395,2.421,2.421,0,0,0,3.394,0,358.662,358.662,0,0,1,32.7-33.7q5.383-4.876,10.961-9.533l-4.1-1.7a42.218,42.218,0,0,0,2.131,8.252c.465,1.508.938,3.02,1.512,4.491.483,1.241,1,2.726,2.437,3.123,2.139.588,4.7-1.755,6.269-2.886,3.056-2.195,6.027-4.509,9-6.812,2.867-2.219,5.235-4.151,8.2-6.268a2.468,2.468,0,0,0,.861-3.284,2.421,2.421,0,0,0-3.284-.861Z"/><path class="c" d="M161.016,58.014c6.745,1.769,11.609,6.515,15.543,12.1a87.313,87.313,0,0,1,10.172,19.853,63.014,63.014,0,0,1,3.212,11.391,2.418,2.418,0,0,0,2.952,1.676,2.455,2.455,0,0,0,1.676-2.952C193.278,92.41,190.178,84.94,186.728,78s-7.748-14-13.737-19.061a27.01,27.01,0,0,0-10.7-5.558c-2.99-.784-4.266,3.844-1.276,4.629Z"/><path class="c" d="M180,23c-3.673-8.1-11.941-13.436-19.828-16.846A73.242,73.242,0,0,0,132.344.005a50.2,50.2,0,0,0-7.966.524,17.845,17.845,0,0,0-7.211,2.356,2.427,2.427,0,0,0-.861,3.283,9.419,9.419,0,0,0,4.052,2.816c1.58.721,2.995,1.233,4.379,1.9l1.211-4.472a63.3,63.3,0,0,0-16.273,1.826,57.387,57.387,0,0,0-14.486,5.408A54.023,54.023,0,0,0,84.651,21.4a20.57,20.57,0,0,0-4.429,5.113,2.64,2.64,0,0,0,.371,3.137,4.171,4.171,0,0,0,2.807,1,42.6,42.6,0,0,0,5.321-.154l-1.7-4.1A56.532,56.532,0,0,0,69.375,53.86c-2.5,8.743-2.892,18.4-2.284,27.434.3,4.392.8,8.946,2.618,13a2.418,2.418,0,0,0,3.284.861,2.458,2.458,0,0,0,.861-3.283c-.27-.6.1.284-.046-.107-.066-.173-.132-.347-.194-.522-.105-.3-.2-.6-.291-.9-.251-.838-.452-1.691-.624-2.549a46.036,46.036,0,0,1-.733-5.493,95.091,95.091,0,0,1-.073-13.514,67.556,67.556,0,0,1,1.653-11.931A52.8,52.8,0,0,1,90.418,29.792c1.592-1.33.3-4.195-1.7-4.1-1.008.049-2.013.13-3.021.166-.615.022-1.232.038-1.847.013-.219-.009-.441-.016-.659-.044.325.049.366.05.121,0q-.883-.284,1.016.851l.327,1.211c.059.483-.132.424-.168.757-.044.411-.13.213-.006.064.169-.2.309-.455.464-.67-.258.36-.189.235.016-.008.122-.145.243-.292.367-.435.336-.39.684-.77,1.039-1.143A45.333,45.333,0,0,1,92.194,21.3a48.331,48.331,0,0,1,9.3-5.465,60.217,60.217,0,0,1,10.942-3.33,56.925,56.925,0,0,1,13.509-1.3c2.277.035,3.408-3.421,1.212-4.473-1.285-.615-2.557-1.087-3.812-1.642-.726-.32-1.45-.65-2.148-1.027-.289-.156-.574-.319-.849-.5-.223-.146-.073-.066.1.18l-.861,3.283c3.21-2.1,7.94-2.2,11.728-2.227a61.571,61.571,0,0,1,12.364,1.237c8.573,1.7,17.18,4.761,24.251,10a24.309,24.309,0,0,1,7.917,9.379,2.418,2.418,0,0,0,3.284.861A2.458,2.458,0,0,0,180,23Z"/><path class="c" d="M183.961,32.163c4.057,1.794,7.261,5.3,9.829,8.828a42.371,42.371,0,0,1,6.51,12.474c2.777,9.2,3.3,19.247,2.73,28.791a54.767,54.767,0,0,1-2.51,14.4c-1,2.931,3.637,4.189,4.628,1.276A57.236,57.236,0,0,0,207.7,84.1a99.784,99.784,0,0,0-.026-15.92,79.862,79.862,0,0,0-2.443-14.938,45.626,45.626,0,0,0-6.523-13.574c-3.14-4.563-7.142-9.353-12.325-11.646a2.478,2.478,0,0,0-3.284.862,2.418,2.418,0,0,0,.861,3.283Z"/><path class="c" d="M45.871,214.947c11.4-.144,22.8-.561,34.2-.763,4.681-.083,9.373-.187,14.054-.04,7.556.236,15.1.723,22.658.852,8.979.154,17.959.115,26.939.053,3.087-.021,3.094-4.821,0-4.8-16.166.112-32.287-.053-48.434-.859-4.329-.216-8.682-.108-13.013-.042-6.047.091-12.094.244-18.14.4-6.087.153-12.174.326-18.262.4-3.086.038-3.095,4.838,0,4.8Z"/><path class="c" d="M42.821,232.066c4.238-.508,8.534-.669,12.792-.927,7.693-.465,15.39-.883,23.086-1.3,17.085-.927,34.174-1.794,51.252-2.844,5.4-.331,10.839-.547,16.207-1.208a2.476,2.476,0,0,0,2.4-2.4,2.413,2.413,0,0,0-2.4-2.4c-4.539.558-9.135.763-13.7,1.052-7.848.5-15.7.933-23.552,1.365-16.956.933-33.916,1.789-50.868,2.79-5.065.3-10.18.468-15.221,1.072a2.475,2.475,0,0,0-2.4,2.4,2.415,2.415,0,0,0,2.4,2.4Z"/><path class="a" d="M54.2,256.719c2.192-10.743,5.053-17,9.79-28.47,3.729-8.248,5.661-17.858,12.97-23.74,7.307-3.495,32.487-4.858,34.951,4.849a5.122,5.122,0,0,1-4.491,4.721,5.345,5.345,0,0,1-.87.05c4.649.864,14.387,4.564,8.8,10.32a4.792,4.792,0,0,1-2.55,1.14c-.01.01-.01.01-.02,0h-.02a2.482,2.482,0,0,1-.75.04c-.01.01-.01.01-.02,0a23.475,23.475,0,0,1-2.93-.45,8.858,8.858,0,0,1,1.04.56h.01c3.385,1.891,2.5,6.971-.39,8.91a3.962,3.962,0,0,1,.76.57c.01,0,.01,0,.01.01a3.692,3.692,0,0,1,.37.41c0,.01.01.01.01.02,3.6,6.352-6.1,6.8-9.84,7.6-6.653,1.62-6.849,8.93-10.18,13.821a113.915,113.915,0,0,1-11.63,8.54l-6.74,1.4-19.65-6.17C53.094,260.341,54,257.314,54.2,256.719Z"/><path class="c" d="M56.512,257.357A126.493,126.493,0,0,1,64,234.432c1.605-3.875,3.276-7.721,4.77-11.641a66.813,66.813,0,0,1,4.631-10.4A23.331,23.331,0,0,1,76.694,208q.459-.472.947-.918c.123-.113.779-.669.665-.561.185-.175-.378.13.173-.073.222-.081.442-.165.665-.241a27.679,27.679,0,0,1,3.073-.837q.86-.187,1.726-.338.425-.073.85-.14c.165-.026.331-.05.5-.075.059-.009.592-.082.249-.037a48.645,48.645,0,0,1,16.339.344c.688.153,1.372.328,2.046.535.342.1.681.217,1.016.339.169.061.95.382.6.226a13.842,13.842,0,0,1,1.626.845c.261.16.515.329.762.51-.383-.281.145.126.274.244.21.192.395.405.6.605.374.37-.07-.209.188.243.135.236.278.468.411.705.06.108.161.416-.022-.075.029.078.136.263.122.345-.048.284-.014.15,0,.058a2.026,2.026,0,0,1-.137.367,3.856,3.856,0,0,1-.645.864,3.045,3.045,0,0,1-1.941.8c-3.077.136-3.094,4.936,0,4.8,4-.176,8.88-4.047,7.232-8.508a10.585,10.585,0,0,0-5.346-5.616c-5.471-2.765-12.128-3.116-18.145-2.854a57.443,57.443,0,0,0-9.234,1.115,28.594,28.594,0,0,0-3.407.908,10.329,10.329,0,0,0-4.036,2.5c-6.315,6.078-8.371,14.856-11.764,22.627-4.155,9.518-8.086,19.18-10.184,29.383a2.459,2.459,0,0,0,1.676,2.953,2.423,2.423,0,0,0,2.952-1.677Z"/><path class="c" d="M82.826,218.984a29.632,29.632,0,0,1,10.335-3.493,23.763,23.763,0,0,1,2.965-.285,22.536,22.536,0,0,1,3.112.324c1.9.228,3.8.429,5.679.771,2.825.512,6.365,1.267,8.668,3.1a1.949,1.949,0,0,1,.875,2.342,2.521,2.521,0,0,1-2.515,1.51,2.484,2.484,0,0,0-2.952,1.676,2.416,2.416,0,0,0,1.676,2.952c3.692.5,7.45-1.287,8.49-5.1,1.006-3.688-1.424-6.75-4.547-8.368a31.862,31.862,0,0,0-9.816-2.967c-2.043-.31-4.1-.531-6.15-.782a15.534,15.534,0,0,0-2.752-.24c-1.2.068-2.387.206-3.573.378A33.724,33.724,0,0,0,80.4,214.839c-2.677,1.54-.262,5.689,2.423,4.145Z"/><path class="c" d="M91.646,228.521c.308-.3-.414.2.013-.022.179-.093.348-.213.526-.31.375-.2.989-.477,1.135-.537,1-.41,2.034-.759,3.067-1.085a14.071,14.071,0,0,1,6.849-.677,28.112,28.112,0,0,1,3.546,1,6.971,6.971,0,0,1,2.543,1.259,2.173,2.173,0,0,1,.565,1.928,4.143,4.143,0,0,1-1.636,2.714,2.415,2.415,0,0,0,0,3.394,2.456,2.456,0,0,0,3.394,0c2.767-2.243,3.977-6.611,2.274-9.833-1.573-2.975-5.1-3.891-8.087-4.761a17.884,17.884,0,0,0-10.158.177c-2.451.741-5.541,1.532-7.425,3.364-2.219,2.157,1.177,5.549,3.394,3.394Z"/><path class="c" d="M80.439,267.692c2.493-1.2,4.461-3.261,6.72-4.821,2.361-1.631,4.906-3.031,6.463-5.54,1.373-2.212,1.916-4.852,3.071-7.177a7.837,7.837,0,0,1,2.96-3.643c3.125-1.862,6.907-1.367,10.229-2.669,4.953-1.941,5.5-9.226.527-11.525a17.028,17.028,0,0,0-8.54-1.334c-3.089.3-5.58,1.641-8.212,3.164-2.673,1.546-.259,5.7,2.422,4.145,1.823-1.055,3.559-2.209,5.7-2.5a13.549,13.549,0,0,1,5.839.566,4.934,4.934,0,0,1,.92.384c.008,0,.511.418.316.216a1.728,1.728,0,0,1,.046,1.847,2.525,2.525,0,0,1-.3.4c.061-.073.435-.263.033-.039a1.308,1.308,0,0,1-.5.224,18.8,18.8,0,0,1-2.555.608c-1.609.292-3.294.4-4.868.848a14.119,14.119,0,0,0-4.856,2.5c-3.246,2.593-4.134,6.746-5.736,10.356-1.09,2.454-3.269,3.572-5.384,5.029-2.258,1.554-4.233,3.62-6.72,4.821a2.422,2.422,0,0,0-.861,3.284,2.451,2.451,0,0,0,3.283.861Z"/><path class="a" d="M187.938,319.459l17.23-23.44-11.86-10.17c-1.189-8.23-10.44-10.579-14-17.42-2.407-5.808-12.826-10.347-11.21-.45,1.4,5.271,3.553,10.565,4.64,15.89l-8.48,8.7c-8.217,3.32-17.129,5.328-25.94,4.6-6,.262-15.848-4.152-20.09,1.048-7,15.431,45.9,9.943,54.12,10.721C174.841,310.383,185.326,317.69,187.938,319.459Z"/><path class="d" d="M172.878,309.269c.89.56,1.97,1.25,3.16,2.03"/><path class="a" d="M115.57,266.54c3.8,3.918,19.665,7.727,29.878,7.6,11.318-.139,24.88-1.387,28.188-7.6.272,6.358-.954,14.086-4.6,19.38-3.918,5.694-11.132,10.589-17.816,11.793-10.189,1.835-18.341-.078-26.6-6.316-7.3-5.509-10.157-16.271-9.05-24.857Z"/><path class="a" d="M119.933,257.553c.033-.037.066-.074.1-.11,1.539-1.656,4.652-3.332,6.908-3.179a2.353,2.353,0,0,0,1.746-.277,2.26,2.26,0,0,0,.535-1A10.9,10.9,0,0,1,147,248.69a2.362,2.362,0,0,0,1.213.783,2.5,2.5,0,0,0,1.659-.738,7.735,7.735,0,0,1,10.7,2.152,3.249,3.249,0,0,0,1.128,1.364,3.3,3.3,0,0,0,1.447.188c3.322.052,6.284,3.409,7.581,6.467,1.574,3.712,2.205,4.8.866,10.02-5.136,4.165-16.467,5.1-26.154,5.216-8.639.106-21.32-2.6-27.323-5.813l-.382-2.474A10.5,10.5,0,0,1,119.933,257.553Z"/><path class="c" d="M113.873,268.237c2.442,2.438,6.09,3.68,9.3,4.715A77.512,77.512,0,0,0,136.6,275.9a76.507,76.507,0,0,0,13.859.5,71.087,71.087,0,0,0,14.429-1.865c4.1-1.056,8.661-2.891,10.824-6.785,1.5-2.7-2.643-5.126-4.145-2.422a4.14,4.14,0,0,1-1.09,1.407,7.143,7.143,0,0,1-1.636,1.181,19.34,19.34,0,0,1-4.736,1.859,60.853,60.853,0,0,1-12.865,1.786,74.962,74.962,0,0,1-25.029-2.7,42.935,42.935,0,0,1-5.547-1.952,20.338,20.338,0,0,1-2.093-1.087c-.3-.184-.6-.378-.885-.586-.311-.225.391.367-.037-.038-.125-.12-.255-.233-.378-.356-2.188-2.185-5.584,1.208-3.394,3.394Z"/><path class="c" d="M113.17,266.54a32.731,32.731,0,0,0,3.27,18.562c3.071,6.051,8.6,10.312,14.748,12.965a35.292,35.292,0,0,0,20.852,1.926,31.135,31.135,0,0,0,17.689-11.02c5-6.269,6.606-14.562,6.307-22.433-.117-3.079-4.918-3.094-4.8,0,.229,6.012-.637,12.555-3.961,17.7a26.723,26.723,0,0,1-14.528,10.644,29.86,29.86,0,0,1-17.773-.456c-5.333-1.857-10.6-5.3-13.538-10.21a28.023,28.023,0,0,1-3.466-17.682,2.413,2.413,0,0,0-2.4-2.4,2.46,2.46,0,0,0-2.4,2.4Z"/><path class="c" d="M120.057,265.217a7.665,7.665,0,0,1,1.892-6.3,8.709,8.709,0,0,1,2.824-1.827,7.419,7.419,0,0,1,2.913-.389,3.82,3.82,0,0,0,3.6-2.425,11.334,11.334,0,0,1,1.618-3.01,8.63,8.63,0,0,1,5.57-3.112,8.777,8.777,0,0,1,6.4,1.849c1.157.941,2.082,1.937,3.705,1.861,1.487-.069,2.327-1.185,3.614-1.7a5.581,5.581,0,0,1,4.939.562,6.076,6.076,0,0,1,1.754,2,4.543,4.543,0,0,0,3.9,2.116c2.416.13,4.115,1.989,5.251,4.007,1.22,2.164,2.173,4.559,1.783,7.034a2.475,2.475,0,0,0,1.676,2.953,2.419,2.419,0,0,0,2.952-1.677,14.023,14.023,0,0,0,.114-4.551,18.169,18.169,0,0,0-1.414-4.116,15.37,15.37,0,0,0-5.376-6.934,8.672,8.672,0,0,0-3.933-1.458c-.108-.012-1-.153-1.053-.058l-.1.02q.6.525.149-.07a6.8,6.8,0,0,0-1.33-1.82,10.269,10.269,0,0,0-7.43-3.129,9.742,9.742,0,0,0-3.729.732,9.215,9.215,0,0,0-1.683.891l-.307.225q-.9.451.614.362c.024-.125-.776-.7-.853-.768a13.639,13.639,0,0,0-8.875-3.169,13.325,13.325,0,0,0-8.176,3.054,13.512,13.512,0,0,0-2.8,3.146,12.722,12.722,0,0,0-1.1,2.162,2.776,2.776,0,0,0-.263.673q1.389-.53.4-.458c-.228-.02-.455-.032-.683-.035a12.222,12.222,0,0,0-8.493,4.119,12.9,12.9,0,0,0-2.707,10.52,2.418,2.418,0,0,0,2.952,1.676,2.456,2.456,0,0,0,1.676-2.952Z"/><path class="c" d="M138.26,261.309a1.124,1.124,0,0,1,0-.246l-.085.638a1.186,1.186,0,0,1,.065-.235l-.242.573a1.633,1.633,0,0,1,.164-.276l-.376.485a2.506,2.506,0,0,1,.415-.4l-.486.375a5.38,5.38,0,0,1,1.094-.611l-.573.242a8.161,8.161,0,0,1,1.951-.575l-.638.085a6.779,6.779,0,0,1,1.7.009l-.638-.086a5.593,5.593,0,0,1,1.383.355l-.573-.242a3.2,3.2,0,0,1,.643.373l-.486-.375a3.882,3.882,0,0,0,.78.635,2.447,2.447,0,0,0,2.665-.187,2.4,2.4,0,0,0,.86-2.523,2.66,2.66,0,0,0-.646-1.105l.376.486-.02-.034a2.4,2.4,0,1,0-4.144,2.423,5.062,5.062,0,0,0,.419.551l-.617-1.059,0,.014,3.525-2.71-.043-.021.485.375a6.172,6.172,0,0,0-3.973-1.67,8.088,8.088,0,0,0-2.935.2,9.682,9.682,0,0,0-2.721,1.1,3.9,3.9,0,0,0-2.129,3.436,2.6,2.6,0,0,0,.7,1.7,2.4,2.4,0,0,0,3.394,0,2.326,2.326,0,0,0,.7-1.7Z"/><path class="a" d="M186.243,275.792c-2.754-1.579-5.244-4.673-6.933-7.36s-3.813-5.441-6.89-6.222a3.658,3.658,0,0,0-3.214.468,3.4,3.4,0,0,0-.965,1.452c-1.275,3.39,1.53,8.458,2.4,11.974.484,1.958,1.793,5.958,2.094,7.762Z"/><path class="c" d="M187.454,273.72c-2.918-1.735-4.771-4.577-6.61-7.334-1.933-2.9-4.511-5.818-8.087-6.558a5.869,5.869,0,0,0-5.5,1.4,7.109,7.109,0,0,0-1.738,5.059c.067,3.293,1.542,6.306,2.507,9.39a73.364,73.364,0,0,1,2.4,8.832,2.42,2.42,0,0,0,2.952,1.676,2.454,2.454,0,0,0,1.676-2.952c-.422-2.376-1.258-4.675-1.893-7-.7-2.562-1.738-5.013-2.43-7.575a14.418,14.418,0,0,1-.362-1.643,7.484,7.484,0,0,1-.049-.872,4.48,4.48,0,0,0,.023-.6c.2-1.127.569-1.256,1.6-.97,2.557.707,4.129,3.263,5.477,5.354a24.24,24.24,0,0,0,7.615,7.943c2.662,1.582,5.079-2.566,2.423-4.145Z"/><path class="a" d="M164.257,292.574c-10.048,4.115-16.095,4.327-22.679,4.88-3.846-.249-11.664-1.275-15.694-1.531-3.034-.192-6.232-.389-7.655,2.3-1.224,2.309-.71,5.642,1.531,6.985,4.806,2.882,18.747,3.476,23.4,3.9,8.647.781,20.059-.344,28.987-.164Z"/><path class="c" d="M163.619,290.26a61.965,61.965,0,0,1-21.892,4.782,40.733,40.733,0,0,1-5.032-.439c-1.935-.2-3.87-.422-5.806-.625-3.382-.355-7.362-1.15-10.686-.152-4.094,1.229-5.97,5.869-4.561,9.788,1.234,3.435,4.533,4.689,7.8,5.5,6.2,1.543,12.669,1.811,19.01,2.324,9.9.8,19.787-.282,29.7-.1,3.09.056,3.091-4.744,0-4.8-8.56-.154-17.114.706-25.675.372a152.462,152.462,0,0,1-17.392-1.567c-1.51-.235-3.017-.512-4.5-.888-.651-.165-1.3-.348-1.933-.565-.269-.092-.537-.188-.8-.3s0,0,.046.019c-.163-.075-.325-.152-.484-.235-2.013-1.046-1.957-4.456.367-5a15.794,15.794,0,0,1,4.626-.014c1.616.118,3.228.287,4.84.457,3.34.353,6.725.918,10.085,1.022a40.436,40.436,0,0,0,5-.386c1.872-.182,3.741-.414,5.595-.731a62.585,62.585,0,0,0,12.964-3.833,2.476,2.476,0,0,0,1.676-2.952,2.415,2.415,0,0,0-2.952-1.676Z"/><path class="c" d="M185.987,278.612c.161.113.737.621.209.142.16.145.337.273.5.415q.519.449.994.945c.318.331.608.682.905,1.031.192.226-.362-.49-.066-.086.057.078.115.155.171.233q.212.294.408.6.354.544.661,1.118c.113.212.222.427.325.644.042.087.082.174.122.262.022.048.218.5.051.11s.008.031.041.115c.043.112.084.225.125.338.072.2.141.409.205.615.141.46.257.926.355,1.4a2.415,2.415,0,0,0,2.952,1.677,2.459,2.459,0,0,0,1.676-2.953,17.694,17.694,0,0,0-7.213-10.744,2.41,2.41,0,0,0-3.283.861,2.463,2.463,0,0,0,.861,3.284Z"/><path class="c" d="M246.918,349.276a36.707,36.707,0,0,1-11.374,1.671,51.111,51.111,0,0,1-14.585-1.813,37.844,37.844,0,0,1-7.465-2.919,79.811,79.811,0,0,1-7.613-4.914q-7.149-4.878-14.223-9.868c-3.84-2.725-7.651-5.492-11.4-8.344-1.5-1.141-2.96-2.278-4.485-3.494q-.537-.428-1.072-.859c-.217-.175-.765-.808-1.054-.855l.12,1.165.519-.78q.261-.392.52-.783.783-1.179,1.565-2.36c3.781-5.711,7.542-11.435,11.382-17.107q2.781-4.107,5.629-8.167,1.332-1.893,2.687-3.77.669-.927,1.345-1.848a12.239,12.239,0,0,0,1.613-2.179l.269-.359q-2.117-.169-1.231.305a3.143,3.143,0,0,0,.564.356q.627.4,1.251.8,1.464.945,2.919,1.907,3.482,2.293,6.941,4.624c4.574,3.071,9.132,6.164,13.708,9.232,2.573,1.725,4.979-2.431,2.423-4.145-8.322-5.578-16.542-11.331-25.012-16.685a3.911,3.911,0,0,0-4.109-.419c-1.459.784-2.521,2.83-3.481,4.14q-3.153,4.3-6.179,8.695c-4.075,5.889-8.029,11.86-11.978,17.833q-1.443,2.183-2.886,4.364c-.973,1.469-2.466,3.1-2.992,4.79-.9,2.9,1.994,4.59,3.907,6.1q5.54,4.385,11.268,8.521c4.586,3.333,9.231,6.583,13.9,9.8,5.391,3.717,10.65,7.8,16.755,10.274a52.187,52.187,0,0,0,18.462,3.552,44.04,44.04,0,0,0,14.668-1.836c2.916-.972,1.666-5.609-1.276-4.629Z"/><path class="c" d="M2.318,358.605q23.718,0,47.435-.032,29.935-.031,59.871-.077,31.568-.045,63.134-.093,28.609-.043,57.221-.081,21.066-.027,42.134-.039H275.8c3.088,0,3.094-4.8,0-4.8q-19.825,0-39.649.032-27.932.034-55.863.077l-62.9.094q-30.384.043-60.766.08-24.729.029-49.456.04H2.318c-3.088,0-3.093,4.8,0,4.8Z"/><path class="c" d="M94.259,187.252q4.3-1.977,8.584-3.969a14.722,14.722,0,0,0,2-.916q-.94.386-.174.089.306-.123.609-.253c.4-.167.789-.337,1.167-.541a9.261,9.261,0,0,0,4.906-7.764c.526-3.381,1.11-6.743,1.371-10.159a2.421,2.421,0,0,0-2.4-2.4,2.448,2.448,0,0,0-2.4,2.4c-.228,2.989-.74,5.925-1.2,8.883a13.227,13.227,0,0,1-.689,2.916c.174-.432-.088.155-.136.241s-.406.637-.318.523a7.5,7.5,0,0,1-.8.76,32.048,32.048,0,0,1-4.821,2.293q-4.056,1.878-8.114,3.752a2.419,2.419,0,0,0-.861,3.284,2.457,2.457,0,0,0,3.283.861Z"/><path class="c" d="M163.478,163.719a99.726,99.726,0,0,0,1.527,11.243,9.384,9.384,0,0,0,5.26,6.965c.5.238,1.108.374,1.585.657-.8-.474-.589-.262-.351-.143.261.129.529.244.793.367q1.677.784,3.351,1.577,4.149,1.959,8.294,3.927a2.466,2.466,0,0,0,3.283-.861,2.421,2.421,0,0,0-.861-3.284c-4.205-1.994-8.38-4.087-12.64-5.962a7.719,7.719,0,0,1-3.111-1.9c.2.241-.269-.419-.317-.506q-.114-.206-.213-.42.108.269.018.031a10.73,10.73,0,0,1-.462-1.727,88.3,88.3,0,0,1-1.356-9.967,2.461,2.461,0,0,0-2.4-2.4,2.419,2.419,0,0,0-2.4,2.4Z"/><path class="c" d="M248.194,353.905c11-3.447,16.1-16.181,17.464-26.6.873-6.676.418-13.657.047-20.359-.4-7.283-1.131-14.543-2.12-21.769-.912-6.67-2.064-13.317-3.607-19.872-.765-3.254-1.591-6.477-2.307-9.743-.7-3.185-1.574-6.283-2.56-9.389a198.285,198.285,0,0,0-8.332-22.583c-3.007-6.574-6.431-12.845-11.921-17.7a79.442,79.442,0,0,0-17.37-11.5c-3.669-1.811-7.5-3.268-11.268-4.859-3.8-1.607-7.6-3.241-11.39-4.87q-2.852-1.224-5.706-2.443a2.566,2.566,0,0,0-2.908.375c-.362.292-.139.115-.058.053-.16.121-.32.24-.483.357-.306.221-.617.434-.932.642-.684.449-1.386.871-2.1,1.271a54.273,54.273,0,0,1-4.877,2.4,90.13,90.13,0,0,1-11.884,4.106,96.078,96.078,0,0,1-27,3.929,96.092,96.092,0,0,1-30.167-5.654,83.172,83.172,0,0,1-12.239-5.334q-1.238-.671-2.444-1.4c-.909-.551-1.937-1.487-3.038-1.487a11.49,11.49,0,0,0-3.491,1.13q-1.869.687-3.736,1.379A301.33,301.33,0,0,0,55.4,195.787a69.423,69.423,0,0,0-12.265,7.305A47.873,47.873,0,0,0,33.6,213.267c-4.387,6.2-7.271,13.263-9.686,20.423-2.165,6.418-4.085,12.922-5.929,19.438-2.224,7.862-4.307,15.766-6.183,23.718-1.6,6.8-3.119,13.653-4.061,20.581-1.31,9.633-1.646,19.328.411,28.883.559,2.6,1.271,5.156,2.085,7.682a17.492,17.492,0,0,0,1.768,4.044,29.162,29.162,0,0,0,7.4,7.793c7.281,5.4,17.076,6.31,25.785,4.64A24.575,24.575,0,0,0,56.96,345a43.157,43.157,0,0,0,7.954-10.279c5.026-8.38,8.433-17.6,12.053-26.644,3.729-9.314,7.366-18.671,10.662-28.149q1.111-3.195,2.162-6.411c.724-2.222,1.884-4.892-.463-6.6-1.331-.967-3.307-1.379-4.851-1.94q-2.522-.915-5.045-1.825-11.1-4.006-22.23-7.923c-2.775-.971-5.551-1.939-8.34-2.866-.857-.285-1.722-.618-2.6-.834a3.671,3.671,0,0,0-3.381.693,6.56,6.56,0,0,0-1.413,2.1c-3.615,7.112-6.777,14.473-9.87,21.823-1.426,3.387-2.822,6.79-4.114,10.231a2.422,2.422,0,0,0,1.676,2.953,2.454,2.454,0,0,0,2.953-1.677c2.168-5.779,4.6-11.464,7.084-17.111q1.893-4.3,3.876-8.553.866-1.851,1.763-3.687c.37-.754.836-2.212,1.44-2.684l-1.059.618c-.141.057-.534-.165-.125-.044.117.034.233.071.349.107q.41.127.818.26,1.143.368,2.28.754c2,.673,4,1.364,5.989,2.059q7.611,2.652,15.2,5.38,7.531,2.7,15.05,5.428c.49.178.979.387,1.478.538l.236.086q1.014.461-.451-1.3a3.628,3.628,0,0,0-.322,1.019q-.666,2.092-1.364,4.173-1.545,4.612-3.208,9.182c-2.469,6.816-5.086,13.579-7.765,20.315-2.6,6.535-5.076,13.166-8.064,19.519-2.558,5.44-5.473,11-9.45,15.556a18.547,18.547,0,0,1-6.448,4.939,26.625,26.625,0,0,1-8.7,2.063c-5.925.464-12.076-.2-17.188-3.417a25.535,25.535,0,0,1-5.746-5.025,15.775,15.775,0,0,1-1.573-2.119c-.217-.341-.424-.688-.613-1.046-.083-.155-.157-.313-.237-.47-.205-.4.13.5-.044-.117-.962-3.431-2.1-6.755-2.784-10.263a59.692,59.692,0,0,1-1.071-9.788,100.192,100.192,0,0,1,1.311-18.027,319.956,319.956,0,0,1,7.015-31.242c2.6-9.854,5.376-19.686,8.613-29.353,3.467-10.354,8.142-20.419,16.6-27.661,4.957-4.245,11.124-7.093,17.016-9.795,6.617-3.035,13.4-5.7,20.21-8.263,3.129-1.178,6.268-2.33,9.409-3.478l-1.849-.242a79.174,79.174,0,0,0,17.655,8.374,106.742,106.742,0,0,0,22.924,5.261c14.16,1.639,28.657-.662,42.118-5.162,5.991-2,12.17-4.428,17.13-8.437l-2.909.375c7.393,3.153,14.76,6.364,22.182,9.447a86.939,86.939,0,0,1,18.141,9.99,46.2,46.2,0,0,1,7.63,6.683,39.224,39.224,0,0,1,5.31,7.948,146.151,146.151,0,0,1,8.542,20.919c1.15,3.449,2.342,6.911,3.311,10.417.864,3.124,1.363,6.331,2.168,9.465,1.547,6.03,2.895,12.07,3.914,18.216a238.934,238.934,0,0,1,3.346,40.434c-.042,6.98-1.018,13.936-4.446,20.131a23.907,23.907,0,0,1-4.748,6.164,13.709,13.709,0,0,1-2.583,1.931,15.829,15.829,0,0,1-1.459.768c-.093.043-.574.23-1.091.392-2.938.921-1.683,5.556,1.276,4.629Z"/><path class="c" d="M136.391,118.529c-.454,1.731-.861,3.479-1.159,5.243a5.721,5.721,0,0,0-.027,2.44,3.353,3.353,0,0,0,1.829,2.2,5.181,5.181,0,0,0,2.445.588c.561-.025,1.1-.166,1.651-.241a2.39,2.39,0,0,0,1.434-1.1,2.4,2.4,0,0,0-.861-3.284l-.573-.241a2.4,2.4,0,0,0-1.276,0c-.259.034-.513.1-.772.133l.639-.085a2.978,2.978,0,0,1-.687,0l.638.086a3.153,3.153,0,0,1-.73-.214l.573.242a3.6,3.6,0,0,1-.434-.229l.486.375a1.146,1.146,0,0,1-.179-.176l.375.485a1.4,1.4,0,0,1-.12-.218l.242.573a1.875,1.875,0,0,1-.083-.34l.086.638a3.287,3.287,0,0,1,.02-.755l-.085.638a50.97,50.97,0,0,1,1.2-5.475,2.4,2.4,0,1,0-4.628-1.277Z"/><path class="c" d="M108.851,105.092c-.9,2.926-.314,9.656,5.229,10.229,7.326-.044,7.716-8.181,5.25-12.007C117.31,100.181,111.373,98.879,108.851,105.092Z"/><path class="c" d="M166.974,105.092c.9,2.926.314,9.656-5.229,10.229-7.325-.045-7.716-8.182-5.25-12.007C158.514,100.181,164.451,98.879,166.974,105.092Z"/><path class="c" d="M126.248,143.58c3.139,3.072,8.12,3.956,12.329,3.953s9.191-.879,12.331-3.953c2.211-2.164-1.184-5.557-3.394-3.394-.1.1-.611.533-.328.309.26-.206-.4.266-.553.361-.276.17-.56.326-.849.471-.194.1-.391.191-.59.277.318-.137-.066.022-.2.069a18.7,18.7,0,0,1-6.421,1.06,18.307,18.307,0,0,1-6.309-1.017c-.011,0-.726-.292-.31-.112-.167-.072-.332-.15-.5-.231-.322-.158-.637-.329-.942-.517-.234-.144-.454-.305-.681-.461.6.411-.052-.067-.2-.209-2.21-2.162-5.607,1.229-3.395,3.394Z"/><path class="c" d="M144.963,137.74c1.371,3.865,4.092,7.592,7.854,9.413a2.571,2.571,0,0,0,1.849.242,2.4,2.4,0,0,0,.574-4.387,10.573,10.573,0,0,1-1.068-.591q-.234-.148-.46-.308c-.084-.059-.166-.121-.249-.181-.324-.233.365.3.143.11a15.078,15.078,0,0,1-1.741-1.687q-.185-.212-.36-.43c-.243-.3.011.037.107.142a2.868,2.868,0,0,1-.185-.249q-.343-.472-.653-.97a15.945,15.945,0,0,1-1.1-2.111l.242.573c-.117-.278-.226-.558-.327-.842a2.561,2.561,0,0,0-1.1-1.435,2.4,2.4,0,0,0-3.525,2.711Z"/></svg>