<?xml version="1.0" encoding="utf-8"?>
<!-- Uploaded to: SVG Repo, www.svgrepo.com, Generator: SVG Repo Mixer Tools -->
<svg width="800px" height="800px" viewBox="0 -21.66 349.005 349.005" xmlns="http://www.w3.org/2000/svg"><defs><style>.a{fill:#ffffff;}.b{fill:#b3b3b3;}.c{fill:#957f6e;}.d{fill:#211715;}</style></defs><path class="a" d="M204.81,109.551A54.735,54.735,0,0,0,213.5,98.669c.794,1.665,1.432,3,1.432,3a80.583,80.583,0,0,0,6.335,10.888c-.027.064-.045.1-.045.1-.833,1.714-4.738,6.577-8.538,12.045-3.606,4.176-8.541,10.448-11.341,12.78-2.129-1.3-3.405-2.172-4.735-3.086a48.306,48.306,0,0,1-20.762-.13c-.317.275-.631.548-.943.822l-6.513,6.714L156.5,136.47V117.194a33.768,33.768,0,0,0,22.743,3.87,47.035,47.035,0,0,0,4.614-.964,62.431,62.431,0,0,0,12.49-5.24Z"/><path class="a" d="M219.821,66.794a6.767,6.767,0,0,1,4.8-1.408,6.112,6.112,0,0,1,5.3,3.144c1.7,3.149,1.342,8.77-.075,12.195a17.719,17.719,0,0,1-6.142,8.324,13,13,0,0,1-6.213,1.907l-.44.953c-.7,1.751-2.414,4.848-2.414,4.848a56.394,56.394,0,0,1-9.834,12.794l-8.46,5.309a62.431,62.431,0,0,1-12.49,5.24,47.035,47.035,0,0,1-4.614.964c-9.941,1.57-18.412-.486-26.666-6.345C144.706,109.13,140.8,99.732,138.9,89.175c-1.094-6.088-2.137-12.715-3.473-19.317,0,0-11.484-40.277,42.738-40.721C225.954,28.745,219.821,66.794,219.821,66.794Z"/><path class="b" d="M199.122,49.179a11.249,11.249,0,0,1,5.72,2.608,13.412,13.412,0,0,1,3.234,4.749,76.963,76.963,0,0,1,2.439,10.747l9.306-.489a6.767,6.767,0,0,1,4.8-1.408,6.112,6.112,0,0,1,5.3,3.144l.747,1.385c2.169-5.5,2.21-14.735,2.148-19.216a63.753,63.753,0,0,0-3.018-15.636c-2.745-8.168-5.751-12.709-12.6-19.169-14.869-13.36-29.949-14.47-39.922-13.162-15.282,2.005-25.9,6.582-34.42,18.7-6.3,6.943-8.648,15.021-9.523,23.95a78.005,78.005,0,0,0,2.7,26.638l.427-3.243c-1.645-14.333,3.419-23.262,13.243-27.883,0,0,8.707-4.427,21.791-3.983,8.883.3,15.028.684,15.028.684,5.208,1.423,9.8,6.682,12.186,11.546"/><path class="c" d="M167,142.859l7.9-7.77c.312-.273.625-.547.943-.822a48.321,48.321,0,0,0,20.759.131c1.33.912,2.607,1.784,4.738,3.085,2.8-2.332,7.735-8.6,11.341-12.78,3.8-5.468,7.7-10.331,8.538-12.045l.327-.675.341.079c6.891,1.583,18.351,4.391,25,6.794,7.775,2.811,14.305,6.309,20.011,12.291,5.128,5.376,10.6,16.432,14.017,28.362,6.778,23.666,8.583,31.889,10.805,44.139,1,5.222,2.657,16.206,2.514,20.039-.11,2.963-.88,10.026-1.847,12.877-1.667,4.917-3.484,10.107-10.25,15.167-9.714,7.264-25.421,13.33-33.719,16.054a70.244,70.244,0,0,0-3.49-10.717c-2.9-7.007-6.894-13.639-11.192-17.439-4.34,3.669-10.413,2.655-15.835,1.79q-4.473-.713-8.981-1.174a25.152,25.152,0,0,0-4.749-.16,18.316,18.316,0,0,0-10.234,4.813c-3.466,3.045-6.1,6.919-8.873,10.581-4.991-15.891-9.975-31.73-13.021-41.361a8.789,8.789,0,0,0-8.328-6.14c-9.678-.064-26.075-.128-44.336-.21-2.713-3.4-2.441-8.1-2.18-15.128a378.026,378.026,0,0,1,6.29-45.21,48.735,48.735,0,0,1,4.17-11.17,23.859,23.859,0,0,1,7.22-6.94,58.751,58.751,0,0,1,7.92-4.08Z"/><path class="d" d="M206.507,111.248a56.115,56.115,0,0,0,12.865-18.7A2.415,2.415,0,0,0,217.7,89.6a2.46,2.46,0,0,0-2.952,1.676c-.229.565.132-.289-.03.066-.075.165-.15.332-.227.5q-.246.522-.506,1.038c-.324.647-.66,1.289-1,1.928-.641,1.192-1.345,2.349-2.073,3.49a53.076,53.076,0,0,1-7.792,9.564c-2.217,2.159,1.178,5.551,3.394,3.394Z"/><path class="d" d="M138.319,23.275c-4.976,7.016-7.068,15.628-7.531,24.122a77.353,77.353,0,0,0,2.939,25.264c.853,2.963,5.486,1.7,4.629-1.276a73.455,73.455,0,0,1-2.786-23.638c.374-7.81,2.327-15.611,6.893-22.05a2.42,2.42,0,0,0-.861-3.283,2.449,2.449,0,0,0-3.283.861Z"/><path class="d" d="M232.886,70.809c1.736-4.3,2.081-9.2,2.268-13.787a60.613,60.613,0,0,0-.581-12.4c-1.508-9.176-4.618-18.166-10.724-25.31a55.97,55.97,0,0,0-26.6-17.49C189.055-.532,180.75-.4,172.426,1.061c-10.457,1.839-20.181,6-27.465,13.919-2.088,2.271,1.3,5.674,3.394,3.394C154.218,12,161.71,8.305,170.09,6.411c7.509-1.7,15.239-2.365,22.819-.726a50.291,50.291,0,0,1,25.27,14.533,38.04,38.04,0,0,1,7.17,10.057A57.043,57.043,0,0,1,230.4,55.642c-.122,4.641-.385,9.537-2.142,13.891a2.414,2.414,0,0,0,1.676,2.952,2.458,2.458,0,0,0,2.952-1.676Z"/><path class="d" d="M195.139,112.788c-10.375,5.65-22.694,8.782-34.036,4.02a29.894,29.894,0,0,1-12.833-9.72,41.689,41.689,0,0,1-6.332-15.036c-1.743-7.53-2.668-15.254-4.193-22.832a2.4,2.4,0,0,0-4.629,1.276c1.462,7.261,2.413,14.629,3.977,21.866a46.715,46.715,0,0,0,6.723,16.71c7.121,10.314,20.125,15.832,32.49,14.754a54.284,54.284,0,0,0,21.256-6.893c2.713-1.478.293-5.624-2.423-4.145Z"/><path class="d" d="M221.032,68.866a4.955,4.955,0,0,1,4.481-.91,4.415,4.415,0,0,1,.913.342c-.02-.01.639.4.408.224a4.921,4.921,0,0,1,.668.647c.271.3-.083-.239.194.3,1.355,2.607,1.179,5.953.458,8.749a16.414,16.414,0,0,1-4.5,7.811c-2.171,2.028-5.637,3.228-8.54,2.133a2.42,2.42,0,0,0-2.952,1.677,2.453,2.453,0,0,0,1.676,2.952c3.342,1.26,7.5.381,10.539-1.326a17.6,17.6,0,0,0,6.812-7.834A21.813,21.813,0,0,0,233.456,73.6c-.076-2.939-.753-6.26-3.041-8.313a9.606,9.606,0,0,0-11.806-.565,2.479,2.479,0,0,0-.861,3.283,2.416,2.416,0,0,0,3.284.861Z"/><path class="d" d="M189.238,72.5c.8,2.108.688,7.083-3.358,7.766-5.387.314-6.059-5.648-4.428-8.577C182.788,69.294,187.09,68.055,189.238,72.5Z"/><path class="d" d="M156.783,73.656c.744,2.048.665,6.872-3.045,7.515-4.942.279-5.588-5.507-4.1-8.339C150.847,70.513,154.789,69.332,156.783,73.656Z"/><path class="d" d="M165.332,83a46.206,46.206,0,0,0-1.953,4.3l.242-.574a5.246,5.246,0,0,0-.581,2.185,3.254,3.254,0,0,0,.412,1.579,4.462,4.462,0,0,0,2.718,1.861c.476.081.931.092,1.406.128a2.414,2.414,0,0,0,1.7-.7,2.4,2.4,0,0,0,0-3.394,2.676,2.676,0,0,0-1.7-.7c-.234-.018-.469-.008-.7-.033l.638.085a2.179,2.179,0,0,1-.561-.152l.574.242a2.824,2.824,0,0,1-.477-.29l.485.375a1.6,1.6,0,0,1-.273-.26l.375.486a.664.664,0,0,1-.069-.132l.241.573a.722.722,0,0,1-.039-.145l.086.638a1.452,1.452,0,0,1-.006-.316l-.086.638a3.1,3.1,0,0,1,.214-.737l-.242.574c.161-.381.314-.764.474-1.145l-.242.573c.462-1.094.974-2.171,1.511-3.232a2.554,2.554,0,0,0,.242-1.849,2.454,2.454,0,0,0-1.1-1.435,2.425,2.425,0,0,0-1.85-.242,2.4,2.4,0,0,0-1.434,1.1Z"/><path class="d" d="M167.67,104.137a4.076,4.076,0,0,1,.546-.273s-.5.194-.13.058c.1-.037.2-.077.309-.113a11.82,11.82,0,0,1,1.419-.39q.354-.075.711-.132c.066-.011.472-.052.135-.022s.074,0,.139-.01a15.216,15.216,0,0,1,1.569-.073c.483,0,.963.034,1.444.082.352.034-.025.048-.118-.017a1.191,1.191,0,0,0,.338.059q.327.061.65.145c.205.054.408.117.609.186.152.052.3.109.454.166.045.018.443.171.183.068s.149.066.193.086c.131.059.26.119.389.182.3.144.591.3.881.46a2.4,2.4,0,1,0,2.423-4.144,15.289,15.289,0,0,0-7.446-2.073,14.935,14.935,0,0,0-7.121,1.61,2.422,2.422,0,0,0-.861,3.284,2.452,2.452,0,0,0,3.284.861Z"/><path class="d" d="M195.041,63.07a6.319,6.319,0,0,1-.714-.055l.638.086a6.386,6.386,0,0,1-1.515-.415l.574.242a6.439,6.439,0,0,1-1.419-.828l.486.376a6.2,6.2,0,0,1-.923-.895,2.414,2.414,0,0,0-1.7-.7,2.4,2.4,0,0,0-2.4,2.4l.086.638a2.407,2.407,0,0,0,.617,1.059,8.429,8.429,0,0,0,1.41,1.27,6.411,6.411,0,0,0,1.156.711,8.957,8.957,0,0,0,3.7.914,2.464,2.464,0,0,0,1.7-.7,2.4,2.4,0,0,0,0-3.394,2.535,2.535,0,0,0-1.7-.7Z"/><path class="d" d="M148.5,38.825a24.945,24.945,0,0,0-11.783,11.161c-2.892,5.812-3.354,12.425-2.649,18.794a2.471,2.471,0,0,0,2.4,2.4,2.416,2.416,0,0,0,2.4-2.4c-.606-5.473-.473-11.414,1.993-16.372a20.621,20.621,0,0,1,10.062-9.438,2.423,2.423,0,0,0,.861-3.284,2.453,2.453,0,0,0-3.284-.861Z"/><path class="a" d="M174.658,143.967a6.594,6.594,0,0,0-1.683-1.04l.975-2.464a5.071,5.071,0,0,0-1.093-4.725,5.251,5.251,0,0,0-3.648-1.479l1.055-2.206a5.793,5.793,0,0,0,0-3.974A5.138,5.138,0,0,0,169,126.327a6.317,6.317,0,0,0-3.292-.422,54.79,54.79,0,0,0-13.516,2.884,30.618,30.618,0,0,1,1.607-3.332c.831-1.416,2.342-2.182,3.737-2.959,2.65-1.48,5.365-3.087,7.9-4.758a3.3,3.3,0,0,0,1.054-4.716A3.538,3.538,0,0,0,164,111.2c-2.337-.566-5.328.351-8,1.416-2.64,1.053-6.552,2.48-8.681,4.47-2.544,2.374-3.545,5.557-4.716,8.665-.649,1.714-2.022,6.578-2.586,8.335l-.692,4.091a8.364,8.364,0,0,0,.15,3.482q2.557,9.875,5.09,19.762a70.493,70.493,0,0,1,1.757,8.239l.05,2.758c6.007.614,14.136,1.492,20.422,2.328.177-.973.311-1.727.328-1.882.18-1.479.34-3.959.4-5.439.076-1.913.069-4.973.053-7.937l.382.452a3.752,3.752,0,0,0,5.07,2.406,5.248,5.248,0,0,0,2.5-3.329,20.127,20.127,0,0,0,.6-4.451c.107-2.547.092-4.332.1-7.046A4.588,4.588,0,0,0,174.658,143.967Z"/><path class="d" d="M180.245,34.2a19.218,19.218,0,0,0-3.464-4.456,19.619,19.619,0,0,0-5.034-3.354,2.588,2.588,0,0,0-1.85-.241,2.4,2.4,0,0,0-.573,4.386,19.07,19.07,0,0,1,3.529,2.112l-.486-.375a15.385,15.385,0,0,1,2.677,2.684l-.375-.485a19.926,19.926,0,0,1,1.431,2.151,2.4,2.4,0,0,0,4.145-2.422Z"/><path class="d" d="M169.058,35.1c-4.88-3.467-11.094-4.274-16.938-4.128a2.4,2.4,0,0,0,0,4.8c5.271-.132,10.223.424,14.516,3.472a2.419,2.419,0,0,0,3.283-.861,2.45,2.45,0,0,0-.861-3.283Z"/><path class="d" d="M212.83,66.645c-.379-2.387-.845-4.761-1.425-7.108a22.226,22.226,0,0,0-1.973-5.72,13.628,13.628,0,0,0-9.672-6.953,2.476,2.476,0,0,0-2.953,1.677,2.418,2.418,0,0,0,1.677,2.952,9.5,9.5,0,0,1,4.553,1.916l.2.147c-.116-.093-.12-.1-.012-.007.137.116.269.235.4.362s.27.285.4.434c.033.038.346.43.172.2a14.858,14.858,0,0,1,1.314,2.091c.065.122.121.249.188.369.286.512-.1-.41.027.045.117.432.27.858.4,1.289.283.977.54,1.962.778,2.951.526,2.191.955,4.4,1.308,6.629a2.417,2.417,0,0,0,2.952,1.677,2.46,2.46,0,0,0,1.677-2.953Z"/><path class="d" d="M200.789,47.932c-2.727-5.511-7.526-10.932-13.62-12.649a2.4,2.4,0,0,0-1.276,4.629c.341.1.679.2,1.011.326.068.026.545.215.212.078s.141.067.207.1a15.379,15.379,0,0,1,1.763.978c.315.2.623.415.925.636.053.039.47.367.21.156s.152.127.2.169c.569.47,1.112.97,1.631,1.494q.75.759,1.435,1.58c.1.124.206.248.308.374.047.059.438.58.1.124.21.283.421.565.624.854a27.4,27.4,0,0,1,2.123,3.577,2.413,2.413,0,0,0,3.283.861,2.46,2.46,0,0,0,.861-3.284Z"/><path class="d" d="M186.26,100.832a2.627,2.627,0,0,1,.331.36l-.375-.486a6.341,6.341,0,0,1,.793,1.4l-.242-.573a5.193,5.193,0,0,1,.36,1.233,2.312,2.312,0,0,0,2,1.72,1.823,1.823,0,0,0,.957-.043,2.431,2.431,0,0,0,1.435-1.1l.242-.574a2.423,2.423,0,0,0,0-1.276,4.676,4.676,0,0,0-.227-.887,11.731,11.731,0,0,0-.6-1.4,6.264,6.264,0,0,0-.454-.759,5.613,5.613,0,0,0-.821-1,2.47,2.47,0,0,0-3.394,0,2.418,2.418,0,0,0-.7,1.7,2.39,2.39,0,0,0,.7,1.7Z"/><path class="a" d="M194.56,302.861a5.637,5.637,0,0,0,3.206-6.887c-2.98-9.531-7.54-24.073-12.153-38.761l62.8,10.517,5.438,9.058c-7.418,3.408-46.542,20.791-58.625,25.833"/><path class="a" d="M188.3,251.168c-1.094,1.428-2.151,2.885-3.228,4.31,3.629,11.557,7.264,23.142,10.16,32.388q3.565-3.611,7.135-7.217l2.763-2.793c2.711-2.741,4.5-4.763,6.787-7.175-1.879,3.871-2.915,5.543-5.443,11.069-.464,1.015-.278,3.5,1,4.492,1.953,1.5,4.485-.184,5.1-.827,4.328-4.51,7.477-9.069,11.669-12.414a46.1,46.1,0,0,0,16.807-5.142c.667-.363,2.684-2.15,3.311-2.579a22.37,22.37,0,0,1,2.914-1.7c-2.817-9.161-7.918-18.978-13.538-23.951-4.341,3.67-10.414,2.656-15.837,1.791q-4.473-.713-8.981-1.174a25.152,25.152,0,0,0-4.749-.16,18.316,18.316,0,0,0-10.234,4.813A43.122,43.122,0,0,0,188.3,251.168Z"/><path class="d" d="M288.131,247.914q9.887,0,19.771-.024l31.024-.039q3.88,0,7.761-.009c3.088,0,3.094-4.8,0-4.8q-10.14,0-20.28.025l-30.882.038q-3.7,0-7.394.009c-3.088,0-3.093,4.8,0,4.8Z"/><path class="d" d="M2.318,247.922c11.016,0,22.031-.047,33.046-.07q2.661,0,5.323-.01c3.088,0,3.094-4.8,0-4.8-11.151,0-22.3.046-33.453.07q-2.459,0-4.916.01c-3.088,0-3.093,4.8,0,4.8Z"/><path class="d" d="M236.969,232.309c4.926-2.09,9.661-4.524,14.473-6.855a2.413,2.413,0,0,0,.861-3.284,2.463,2.463,0,0,0-3.284-.861c-4.812,2.331-9.546,4.766-14.473,6.855a2.4,2.4,0,0,0-.861,3.284,2.479,2.479,0,0,0,3.284.861Z"/><path class="d" d="M231.607,238.25c-3.409,2.177-7.641,1.691-11.453,1.109-4.715-.72-9.536-1.661-14.317-1.728-9.748-.135-16.147,7.638-21.445,14.767a2.417,2.417,0,0,0,.861,3.284,2.457,2.457,0,0,0,3.284-.861c2.5-3.367,5.095-6.931,8.553-9.387a16.561,16.561,0,0,1,5.311-2.607,17.469,17.469,0,0,1,6.286-.2c4.453.442,8.844,1.278,13.286,1.789,4.128.475,8.457.282,12.057-2.016,2.6-1.658.191-5.814-2.423-4.145Z"/><path class="d" d="M194.549,255.725,187.209,263A2.4,2.4,0,0,0,190.6,266.4l7.34-7.276a2.4,2.4,0,0,0-3.394-3.394Z"/><path class="d" d="M195.228,276.607c3.7-4.325,7.756-8.348,11.8-12.347a2.4,2.4,0,1,0-3.394-3.395c-4.048,4-8.1,8.023-11.8,12.348a2.4,2.4,0,0,0,3.394,3.394Z"/><path class="d" d="M200.59,285.855c2.726-2.756,5.486-5.482,8.161-8.288,2.363-2.478,4.654-5.024,7.06-7.461a2.4,2.4,0,0,0-3.394-3.394c-2.407,2.437-4.7,4.983-7.06,7.461-2.675,2.806-5.435,5.532-8.161,8.288a2.4,2.4,0,0,0,3.394,3.394Z"/><path class="d" d="M224.505,275.373a52.45,52.45,0,0,0,14.246-3.739,22.105,22.105,0,0,0,5.34-3.073c.33-.266.656-.537.983-.805.161-.132.322-.264.484-.393.309-.247-.269.19-.039.031a25.623,25.623,0,0,1,2.99-1.752,2.4,2.4,0,0,0-2.422-4.144,24.915,24.915,0,0,0-4.619,3.038,16.934,16.934,0,0,1-1.429,1.129,22.087,22.087,0,0,1-2.929,1.481,44.417,44.417,0,0,1-12.605,3.427,2.478,2.478,0,0,0-2.4,2.4,2.415,2.415,0,0,0,2.4,2.4Z"/><path class="d" d="M231.17,240.6c3.867,2.885,6.682,7.51,8.922,11.766a68.468,68.468,0,0,1,6,16c.716,3,5.345,1.731,4.628-1.276a73.491,73.491,0,0,0-6.673-17.5c-2.641-4.942-5.923-9.752-10.457-13.135a2.417,2.417,0,0,0-3.284.861,2.458,2.458,0,0,0,.861,3.284Z"/><path class="d" d="M209.122,270.929c-.981,1.959-2,3.9-2.96,5.867a40.618,40.618,0,0,0-2.032,4.383,6.959,6.959,0,0,0-.033,3.9,5.48,5.48,0,0,0,7.5,3.708c2.884-1.146,4.785-3.929,6.747-6.209a61.18,61.18,0,0,1,7.526-7.816,2.416,2.416,0,0,0,0-3.394,2.455,2.455,0,0,0-3.394,0c-4.423,3.6-7.649,8.356-11.631,12.39-.062.063-.4.326-.136.131.288-.209-.312.184-.379.222-.113.064-.571.27-.219.133-.141.055-.713.218-.584.195a.583.583,0,0,1-.609-.109c.233.136-.134-.228.081.1a3.576,3.576,0,0,1-.211-.371c.112.221.045.153,0-.039-.05-.217-.116-.427-.153-.648.078.456.016-.171.008-.324,0-.1.02-.2.011-.3.005.053-.119.4-.026.177.032-.074.031-.17.057-.247.12-.352-.109.214.075-.177.532-1.13,1.055-2.264,1.6-3.387.942-1.931,1.943-3.833,2.906-5.755a2.46,2.46,0,0,0-.861-3.284,2.425,2.425,0,0,0-3.284.861Z"/><path class="d" d="M195.86,304.935c7.83-3.269,15.592-6.7,23.358-10.12q13.451-5.917,26.866-11.912c3-1.339,5.993-2.674,8.974-4.043a2.419,2.419,0,0,0,.861-3.284,2.456,2.456,0,0,0-3.283-.861c-15.65,7.186-31.447,14.073-47.236,20.945q-3.173,1.38-6.351,2.748-1.328.571-2.658,1.137c-.2.084-1.359.575-.761.323l-1.046.439a2.48,2.48,0,0,0-1.676,2.952,2.414,2.414,0,0,0,2.952,1.676Z"/><path class="a" d="M37.551,207.139c30.788.512,101.072.671,126.168.839a8.789,8.789,0,0,1,8.328,6.14c5.972,18.886,19.4,61.642,25.719,81.856a5.633,5.633,0,0,1-5.4,7.317c-27.195-.1-100.463-.36-128.632-.93a5.623,5.623,0,0,1-5.264-3.963c-5.555-17.964-19.819-63.232-26.391-83.912A5.639,5.639,0,0,1,37.551,207.139Z"/><path class="d" d="M37.551,209.539c14.38.238,28.762.33,43.143.423q25.2.162,50.4.257,10.6.047,21.2.1,4.14.019,8.28.044c3.068.018,6.221-.168,8.25,2.621a14.966,14.966,0,0,1,1.752,4.442q.708,2.239,1.414,4.479,1.686,5.346,3.369,10.693,3.911,12.423,7.813,24.851,3.846,12.245,7.685,24.491,1.62,5.165,3.236,10.329c.776,2.48,3.053,6.784-.324,8.328-1.138.52-2.6.294-3.829.289l-3.975-.014-9.171-.034q-10.962-.043-21.926-.093-24.94-.114-49.881-.3c-13.491-.105-26.983-.206-40.472-.469-1.5-.029-2.927-.387-3.616-1.89a31.941,31.941,0,0,1-1.2-3.821q-1.446-4.654-2.9-9.3-3.63-11.618-7.285-23.227-7.175-22.818-14.4-45.62c-.421-1.327-1.2-2.86-.773-4.241a3.288,3.288,0,0,1,3.211-2.334c3.086-.04,3.095-4.84,0-4.8a8.135,8.135,0,0,0-7.955,9.717,46.816,46.816,0,0,0,1.424,4.62q.786,2.48,1.571,4.957,3.755,11.855,7.491,23.714,7.405,23.493,14.747,47.007c1.1,3.547,1.849,7.464,5.562,9.212,2.807,1.321,6.541.857,9.591.9q10.267.162,20.537.249,25.368.246,50.736.355,22.467.117,44.935.194l4.052.014a13.22,13.22,0,0,0,5.08-.561,8.142,8.142,0,0,0,4.779-5.2c.652-2.148.116-4.154-.528-6.212q-3.467-11.084-6.945-22.163-7.822-24.933-15.674-49.858c-1.014-3.215-1.781-6.721-3.215-9.777-2.032-4.329-6.346-6.313-10.931-6.343q-8.968-.057-17.936-.092-24.9-.112-49.8-.233c-16.191-.088-32.383-.183-48.574-.381q-4.476-.056-8.952-.127C34.461,204.688,34.46,209.488,37.551,209.539Z"/><path class="d" d="M282.845,94.7c3.163.925,6.738,1.787,9.97.655a8.527,8.527,0,0,0,5.579-5.943c1.45-6.747-7.276-10.054-12.472-10.849-1.434-.22-3.042-.509-4.4.177a3.572,3.572,0,0,0-1.895,4.187c.863,3.11,4.666,4.317,7.364,5.248,5.1,1.763,11.371,2.809,16.389.213a8.168,8.168,0,0,0,4.323-5.484,9.717,9.717,0,0,0-3.129-8.754c-2.207-2.1-5.029-3.438-7.733-4.771a45.476,45.476,0,0,0-7.886-3.187,29.319,29.319,0,0,0-7.94-1.022c-2.869.016-7.367.071-7.5,3.965-.111,3.166,2.968,4.959,5.373,6.258a64.289,64.289,0,0,0,7.7,3.548,60.541,60.541,0,0,0,16.321,3.413,14.413,14.413,0,0,0,8.312-1.346,8.69,8.69,0,0,0,4.633-6.984c.335-5.771-5.736-10.1-10.108-12.637a74.632,74.632,0,0,0-16.573-7.063c-4.272-1.226-10.253-2.7-14.356-.187-1.645,1.006-3.043,2.952-2.5,4.948a6.35,6.35,0,0,0,2.646,3.266c2.827,2.056,6.405,3.212,9.7,4.271a129.488,129.488,0,0,0,13.863,3.534A136.016,136.016,0,0,0,312.9,72.381c4.654.435,10.839-2.323,11.639-7.407.4-2.58-1.011-4.872-2.575-6.8a25.206,25.206,0,0,0-5.651-5.025,59.526,59.526,0,0,0-8.357-4.3,69.542,69.542,0,0,0-9.1-3.456,47.829,47.829,0,0,0-8.908-1.691,2.417,2.417,0,0,0-2.4,2.4,2.452,2.452,0,0,0,2.4,2.4,48.2,48.2,0,0,1,14.114,3.844c4.2,1.781,8.784,3.719,12.2,6.814a12.632,12.632,0,0,1,3.434,4.267,3.927,3.927,0,0,0,.164.649c-.078-.222,0-.026-.055.2a3.323,3.323,0,0,1-1.136,1.656c-2.67,2.287-6.1,1.677-9.282,1.247a137.955,137.955,0,0,1-23.015-5.039,36.7,36.7,0,0,1-7.772-3.14q-.368-.21-.722-.442c-.072-.047-.67-.479-.379-.254s-.25-.219-.333-.3-.5-.586-.247-.24c.259.362-.066-.13-.111-.236,0-.009.227.619.136.289-.06-.215.048-.228.035.357.006-.3-.038-.425-.161.628a1.472,1.472,0,0,1,.212-.363c-.233.163.2-.146.2-.15a3.488,3.488,0,0,1,1.439-.506,12.506,12.506,0,0,1,2.279-.1,27.291,27.291,0,0,1,5.979,1.015A71.254,71.254,0,0,1,300.277,63.9c3.568,1.772,7.55,3.863,9.8,7.271,1.08,1.635,1.428,3.373-.121,4.873a6.887,6.887,0,0,1-4.687,1.645,48.28,48.28,0,0,1-13.219-2A54.206,54.206,0,0,1,280,70.523a7.184,7.184,0,0,1-1.053-.654c-.027-.023-.631-.679-.633-.68l0,.041a1.309,1.309,0,0,1-.461.9c.036.027.147-.034.178-.016.324.194,1.776-.116,2.171-.128a25.021,25.021,0,0,1,6.118.5A44.236,44.236,0,0,1,298.423,75.6c1.88,1.071,3.817,2.421,4.483,4.589a3.117,3.117,0,0,1-1.178,3.6c-3.117,2.228-7.853,1.342-11.277.424a31.632,31.632,0,0,1-3.465-1.143q-.772-.3-1.519-.668c-.069-.033-1.3-.86-1.275-.865-.108.026-.152,1.122-.279,1.283-.513.649-.765.17-.235.286.445.1.94.078,1.394.15a20.6,20.6,0,0,1,3.753.987c1.51.548,4.35,1.577,4.86,3.314.442,1.506-1.231,2.861-2.485,3.276-2.268.753-4.895-.125-7.079-.764-2.971-.868-4.24,3.763-1.276,4.629Z"/><path class="a" d="M210.293,118.548h0C210.338,118.524,210.343,118.521,210.293,118.548Z"/><path class="d" d="M177.737,137.129a51.3,51.3,0,0,0,18.654-.229,2.4,2.4,0,1,0-1.276-4.628,42.752,42.752,0,0,1-8.287.787,47.277,47.277,0,0,1-7.815-.558,2.471,2.471,0,0,0-2.953,1.676,2.421,2.421,0,0,0,1.677,2.952Z"/><path class="d" d="M221.253,114.376c7.247,1.668,14.5,3.422,21.6,5.654,7.148,2.249,14.188,5.346,19.835,10.378,5.558,4.952,9.117,11.622,11.963,18.415,3.429,8.186,5.584,16.878,7.9,25.425,2.82,10.39,5.212,20.839,7.114,31.434q.838,4.665,1.456,9.371a56.7,56.7,0,0,1,.719,8.458,42.946,42.946,0,0,1-3.508,17.029c-3.219,6.935-9.575,11.036-16.084,14.57a145.814,145.814,0,0,1-20.064,8.839q-2.028.732-4.073,1.412c-2.917.969-1.667,5.606,1.276,4.629a170.54,170.54,0,0,0,20.2-8.141c7.174-3.453,14.936-7.524,19.881-13.948,4.221-5.484,5.921-12.2,6.715-18.947a42.573,42.573,0,0,0,.349-8.212c-.265-3.513-.76-7.014-1.283-10.5a308.315,308.315,0,0,0-6.727-32.241c-2.182-8.336-4.289-16.795-7.136-24.931-2.732-7.809-6.221-15.749-11.519-22.184-10.293-12.5-27.466-16.374-42.451-19.99q-2.442-.59-4.891-1.152c-3.006-.692-4.29,3.935-1.276,4.628Z"/><path class="d" d="M240.5,187.036l7.317,26.786c.813,2.976,5.445,1.713,4.629-1.276l-7.318-26.786c-.813-2.976-5.445-1.713-4.628,1.276Z"/><path class="d" d="M219.15,111.446a37.685,37.685,0,0,1-3.5,5.087c-1.851,2.511-3.569,5.181-5.586,7.557-3.337,3.932-6.464,8.344-10.414,11.7l2.908-.376c-5.493-3.369-10.819-7.139-15.948-11.036a2.439,2.439,0,0,0-2.908.376c-3.571,2.793-7.079,5.658-10.493,8.642-2.33,2.037,1.077,5.42,3.4,3.394,3.413-2.984,6.921-5.849,10.492-8.642l-2.908.375c5.128,3.9,10.455,7.667,15.947,11.036a2.467,2.467,0,0,0,2.909-.375c4.042-3.43,7.229-7.956,10.65-11.974,2.122-2.49,3.92-5.293,5.863-7.928a40.158,40.158,0,0,0,3.741-5.409c1.393-2.749-2.747-5.182-4.145-2.423Z"/><path class="d" d="M120.875,205.739a12.247,12.247,0,0,1-1.409-6,83.723,83.723,0,0,1,.329-9.542q.843-10.239,2.3-20.416,1.311-9.193,3.055-18.318a47.928,47.928,0,0,1,4.092-13.1c2.9-5.62,9.277-8.622,14.777-11.05a2.416,2.416,0,0,0,.861-3.283,2.46,2.46,0,0,0-3.284-.861c-5.866,2.589-11.613,5.716-15.433,11.038a28.326,28.326,0,0,0-3.21,6.8,45,45,0,0,0-1.991,6.9,385.227,385.227,0,0,0-5.8,40.343,96,96,0,0,0-.494,11.486,17.059,17.059,0,0,0,2.064,8.424c1.6,2.639,5.75.23,4.145-2.422Z"/><path class="d" d="M138.866,174.12c3.966.368,7.929.775,11.89,1.2,5.311.564,11.155,1.211,16.121,1.882,2.262.3,4.531.618,6.768,1.074l-1.762-2.314c-.284,4.189-.515,8.382-.932,12.561-.583,5.843-1.509,11.639-2.6,17.406a2.463,2.463,0,0,0,1.676,2.952,2.423,2.423,0,0,0,2.953-1.676c1.156-6.084,2.12-12.207,2.745-18.37.434-4.283.672-8.579.963-12.873a2.407,2.407,0,0,0-1.762-2.314c-4.68-.954-9.47-1.455-14.209-2.017-5.423-.642-10.853-1.219-16.286-1.765q-2.779-.279-5.56-.542a2.417,2.417,0,0,0-2.4,2.4,2.452,2.452,0,0,0,2.4,2.4Z"/><path class="d" d="M212.861,102.88a77.322,77.322,0,0,0,6.842,11.583,2.459,2.459,0,0,0,3.283.861,2.425,2.425,0,0,0,.861-3.283,77.366,77.366,0,0,1-6.842-11.584,2.415,2.415,0,0,0-3.283-.861,2.459,2.459,0,0,0-.861,3.284Z"/><path class="d" d="M142.327,134.765c.881-2.771,1.588-5.6,2.587-8.335a29.909,29.909,0,0,1,2.449-5.593,9.9,9.9,0,0,1,3.94-3.537,46.6,46.6,0,0,1,5.032-2.211,17.408,17.408,0,0,1,5.994-1.618c1.064-.012,2.5.39,2.322,1.618-.051.348-.548.694-1,.99q-1.548,1.005-3.133,1.956c-2.108,1.27-4.434,2.323-6.421,3.776-2.044,1.494-2.974,3.555-3.975,5.8a2.475,2.475,0,0,0,.861,3.284,2.418,2.418,0,0,0,3.283-.861c.443-1,.862-2,1.394-2.954a5.051,5.051,0,0,1,2.115-1.932c2.387-1.386,4.8-2.713,7.137-4.185,2.2-1.387,4.422-2.86,4.532-5.729a6.43,6.43,0,0,0-3.139-5.664c-4.418-2.535-10.3.427-14.467,2.2a22.255,22.255,0,0,0-5.972,3.442,16.142,16.142,0,0,0-4.057,6.025c-1.7,3.985-2.8,8.135-4.107,12.252-.938,2.951,3.695,4.214,4.629,1.277Z"/><path class="d" d="M152.526,140.323a58.546,58.546,0,0,1,13.4-3.4c1.435-.236,3.247-.531,4.527.037a2.46,2.46,0,0,1,1.184,2.9c-.993,2.932,3.642,4.191,4.628,1.276a7.366,7.366,0,0,0-1.71-7.061c-1.808-1.872-4.508-2.35-7.007-2.16a63.923,63.923,0,0,0-8.046,1.311,44.233,44.233,0,0,0-8.251,2.467,2.481,2.481,0,0,0-1.676,2.952,2.414,2.414,0,0,0,2.952,1.676Z"/><path class="d" d="M155.822,147.552c3.624-.787,7.254-1.546,10.909-2.184a14.107,14.107,0,0,1,4.361-.49,2.985,2.985,0,0,1,2.546,1.959,17.8,17.8,0,0,1,.175,4.763,43.653,43.653,0,0,1-.237,5.076c-.145,1.106-.4,2.6-1.24,3.324a1.291,1.291,0,0,1-2.064-.657,2.473,2.473,0,0,0-2.953-1.677,2.419,2.419,0,0,0-1.676,2.953,6.439,6.439,0,0,0,3.726,4.06A5.963,5.963,0,0,0,175,163.96c3.16-2.343,3.439-6.537,3.563-10.153.064-1.858.106-3.728.068-5.587a8.835,8.835,0,0,0-1.341-4.821,8.113,8.113,0,0,0-4.613-3.08,13.628,13.628,0,0,0-5.73.166c-4.156.694-8.282,1.545-12.4,2.439a2.4,2.4,0,1,0,1.276,4.628Z"/><path class="d" d="M169.187,174.991a55.726,55.726,0,0,0,.8-11.162c.014-3.57-.057-7.142-.018-10.712.033-3.09-4.767-3.092-4.8,0-.038,3.473.029,6.947.019,10.421a50.612,50.612,0,0,1-.626,10.177,2.458,2.458,0,0,0,1.677,2.952,2.424,2.424,0,0,0,2.952-1.676Z"/><path class="d" d="M142.254,130.905a11.214,11.214,0,0,0-5.231,7.025c-.649,3.575.91,7.393,1.79,10.814q1.41,5.486,2.82,10.969A94.4,94.4,0,0,1,144,170.339a2.414,2.414,0,0,0,2.952,1.676,2.465,2.465,0,0,0,1.676-2.952c-.889-6.49-2.949-12.877-4.578-19.211q-.612-2.383-1.226-4.767a37.319,37.319,0,0,1-1.126-4.6,5.647,5.647,0,0,1,2.974-5.438c2.6-1.647.2-5.8-2.422-4.144Z"/><path class="d" d="M144.677,135.048a48.6,48.6,0,0,1,14.758-5.764,33.719,33.719,0,0,1,7.345-.979,9.275,9.275,0,0,0,1.159.164c-.3.05-.3-.376-.291-.091,0,.113.369.549.4.63a3.338,3.338,0,0,1-.1,2.443,2.415,2.415,0,0,0,1.676,2.953,2.462,2.462,0,0,0,2.953-1.677c1.124-2.734.216-6.8-2.369-8.435-2.528-1.595-6.5-.576-9.208-.152a53.245,53.245,0,0,0-18.748,6.763c-2.664,1.561-.251,5.711,2.423,4.145Z"/></svg>