<?xml version="1.0" encoding="utf-8"?>

<!DOCTYPE svg PUBLIC "-//W3C//DTD SVG 1.1//EN" "http://www.w3.org/Graphics/SVG/1.1/DTD/svg11.dtd">
<!-- Uploaded to: SVG Repo, www.svgrepo.com, Generator: SVG Repo Mixer Tools -->
<svg height="800px" width="800px" version="1.1" id="_x32_" xmlns="http://www.w3.org/2000/svg" xmlns:xlink="http://www.w3.org/1999/xlink" 
	 viewBox="0 0 512 512"  xml:space="preserve">
<style type="text/css">
	.st0{fill:#000000;}
</style>
<g>
	<path class="st0" d="M284.257,275.686c-0.571,0.068-1.173,0.115-1.798,0.115c-4.457,0.039-10.658-2.136-15.5-4.426
		c-2.445-1.134-4.566-2.283-6.07-3.139c-0.332-0.185-0.502-0.293-0.779-0.455v-10.682c7.033-1.411,12.478-6.292,16.288-12.014
		c4.534-6.803-3.402-13.604-20.406-13.604c-16.99,0-24.925,6.802-20.398,13.604c4.072,6.108,9.994,11.266,17.714,12.254v10.45
		c-1.789,1.049-4.959,2.799-8.714,4.426c-4.473,1.966-9.732,3.617-13.62,3.586c-0.624,0-1.241-0.047-1.796-0.115
		c-1.867-0.263-3.579,1.041-3.833,2.907c-0.254,1.859,1.049,3.571,2.908,3.818c0.887,0.123,1.789,0.192,2.722,0.192
		c6.378-0.038,13.056-2.614,18.37-5.067c3.208-1.496,5.745-2.922,7.365-3.871c1.62,0.949,4.157,2.376,7.365,3.871
		c5.329,2.453,12,5.028,18.385,5.067c0.918,0,1.836-0.069,2.707-0.192c1.859-0.246,3.178-1.959,2.908-3.818
		C287.827,276.734,286.115,275.422,284.257,275.686z"/>
	<path class="st0" d="M208.124,202.359c-6.316,0-11.43,5.128-11.43,11.43c0,6.316,5.114,11.444,11.43,11.444
		c6.308,0,11.429-5.128,11.429-11.444C219.553,207.488,214.432,202.359,208.124,202.359z"/>
	<path class="st0" d="M255.992,24.274C114.608,24.274,0,138.89,0,280.282c0,85.372,41.829,160.934,106.071,207.438
		c19.056-27.347,15.008-179.089,25.45-247.54c0.586-3.825,1.311-7.481,2.098-11.044c-45.74-17.768-33.501-68.706-13.064-81.354
		c24.786-15.339,41.128-3.293,49.996,14.506c27.686-24.833,63.023-31.033,85.442-31.033c22.434,0,57.77,6.2,85.449,31.033
		c8.876-17.799,25.203-29.846,49.989-14.506c20.452,12.647,32.683,63.585-13.049,81.354c0.787,3.563,1.496,7.219,2.083,11.044
		c10.457,68.451,6.393,220.208,25.457,247.547C470.162,441.216,512,365.653,512,280.282C512,138.89,397.376,24.274,255.992,24.274z"
		/>
	<path class="st0" d="M303.876,202.359c-6.324,0-11.445,5.128-11.445,11.43c0,6.316,5.122,11.444,11.445,11.444
		c6.3,0,11.429-5.128,11.429-11.444C315.305,207.488,310.176,202.359,303.876,202.359z"/>
</g>
</svg>