<?xml version="1.0" encoding="utf-8"?>
<!-- Uploaded to: SVG Repo, www.svgrepo.com, Generator: SVG Repo Mixer Tools -->
<svg width="800px" height="800px" viewBox="0 -49.95 368.558 368.558" xmlns="http://www.w3.org/2000/svg"><defs><style>.a{fill:#b5886a;}.b{fill:#211715;}.c{fill:#f8b8b4;}.d{fill:#fce3e1;}</style></defs><path class="a" d="M211.118,227.669A3.7,3.7,0,0,1,210,225.022V202.005a49.417,49.417,0,0,1-18.779,3.441c-7.778,0-16.147-1.77-22.539-5.44v25.016a3.7,3.7,0,0,1-1.123,2.647c-6.332,6.157-11.8,11.744-17.489,17.676a3.681,3.681,0,0,0,2.654,6.23c4.425,0,10.136,0,16.108,0a3.687,3.687,0,0,1,3.687,3.686q0,3.645,0,7.291a3.687,3.687,0,0,0,5.938,2.921c2.893-2.249,5.68-4.588,8.475-7.011a3.678,3.678,0,0,1,4.816,0c2.795,2.423,5.582,4.762,8.475,7.011a3.687,3.687,0,0,0,5.938-2.921q0-3.647,0-7.291a3.687,3.687,0,0,1,3.687-3.686c5.972,0,11.683,0,16.107,0a3.681,3.681,0,0,0,2.655-6.23C222.92,239.413,217.45,233.826,211.118,227.669Z"/><path class="b" d="M188.864,236.057h10.222a2.4,2.4,0,0,0,0-4.8H188.864a2.4,2.4,0,0,0,0,4.8Z"/><path class="b" d="M183.975,225.947h18.194c3.089,0,3.094-4.8,0-4.8H183.975c-3.089,0-3.094,4.8,0,4.8Z"/><path class="b" d="M207.6,200.6v11.962c0,4.139-.159,8.312,0,12.448.1,2.744,1.75,4.276,3.6,6.085q3.058,3,6.075,6.04,2.919,2.943,5.8,5.921,1.443,1.488,2.878,2.983c.293.3.741.68.975.989a1.245,1.245,0,0,1,.315.75,1.136,1.136,0,0,1-.416,1.069.821.821,0,0,1-.473.271,7.541,7.541,0,0,1-1.335.057h-11.72a22.936,22.936,0,0,0-4.747.145,6.14,6.14,0,0,0-4.642,4.64c-.6,2.786.139,5.775-.146,8.592a1.291,1.291,0,0,1-1.794,1.2,16.3,16.3,0,0,1-3.032-2.351q-1.665-1.359-3.3-2.753c-2.032-1.727-3.912-3.71-6.807-3.444-2.829.261-4.82,2.644-6.876,4.37q-1.644,1.381-3.317,2.726c-.667.535-1.639,1.471-2.266,1.548a1.254,1.254,0,0,1-1.213-.525,2.4,2.4,0,0,1-.214-.458,10.348,10.348,0,0,1-.021-2.011q0-2.065,0-4.131a9.006,9.006,0,0,0-.621-4.1,6.325,6.325,0,0,0-5.963-3.441c-2.863-.028-5.727,0-8.59,0h-3.684a21.741,21.741,0,0,1-3.645-.011,1.519,1.519,0,0,1-.76-.564c-.137-.214-.217-.517-.205-.42a2.608,2.608,0,0,1-.006-.537c-.038.36.111-.345.018-.114a9.739,9.739,0,0,1,2.228-2.489q1.435-1.488,2.877-2.971,2.9-2.981,5.83-5.926,3.051-3.063,6.144-6.081a7.126,7.126,0,0,0,2.54-5.112c.135-4.13,0-8.288,0-12.42V197.044c0-3.089-4.8-3.094-4.8,0v27.083a8.039,8.039,0,0,1,.005.944c-.119.975-1.193,1.648-1.845,2.286q-1.725,1.689-3.438,3.392-6.153,6.12-12.149,12.4c-1.647,1.716-2.63,3.781-2.036,6.2a6.15,6.15,0,0,0,4.373,4.441,13.909,13.909,0,0,0,3.448.189H167.34c.782,0,1.817-.223,2.4.377.667.69.377,1.948.378,2.853,0,2.583-.544,5.819.7,8.189a6.2,6.2,0,0,0,5.4,3.256c2.807,0,4.884-2.2,6.915-3.859q1.665-1.359,3.3-2.753c.724-.615,1.719-1.924,2.706-2.065.905-.129,1.573.766,2.18,1.286q1.725,1.479,3.476,2.927c2.074,1.709,4.277,4.125,7.079,4.418a6.148,6.148,0,0,0,5.763-2.83c1.375-2.209.916-5.121.916-7.6,0-1.835-.625-4.238,1.785-4.2,3.012.045,6.027,0,9.039,0a69.583,69.583,0,0,0,7.179-.045,6.1,6.1,0,0,0,5.141-4.075,6.172,6.172,0,0,0-1.4-6.205c-3.754-4.259-7.942-8.221-11.96-12.231q-1.525-1.521-3.062-3.033-.787-.774-1.576-1.544c-.409-.4-1.021-.8-1.23-1.364a3.927,3.927,0,0,1-.081-1.309V200.6c0-3.088-4.8-3.093-4.8,0Z"/><path class="c" d="M64.577,126.08a42.159,42.159,0,0,1,8.477-14.141C66.911,92.023,76.143,71.652,94.741,64.61a11.63,11.63,0,0,0,7.071-7.322,42.663,42.663,0,0,1,17.094-22.352c8.326-5.594,18.341-8.563,28.09-7.653,7.834-16.816,25.078-25.071,42.34-24.92,15.188.133,30.39,6.774,39.211,19.82a11.424,11.424,0,0,0,8.838,5,45.11,45.11,0,0,1,22.381,7.753c9.578,6.437,16.758,16.53,18.4,28.136,21.781,4.958,33.283,26.835,26.955,48.327,12.953,13.626,15.5,36.018,6.043,52.024-8.528,14.433-24.489,24.584-42.7,21.827-3.3,11.022-14.587,16.2-26.251,16.2-7.53,0-15.74-2.5-21.11-7.74-5.73,7.97-17.64,11.74-29.89,11.74-11.34,0-23.94-3.76-29.83-11.69-5.19,5.21-13.09,7.69-21.17,7.69-11.058,0-23.6-5.4-26.423-16.9-19.685,4.769-37.2-5.746-46.286-21.12C60.969,152.358,60.168,138.241,64.577,126.08Z"/><path class="b" d="M159.314,194.967c5.517,7.293,14.6,10.874,23.413,12.2,9.619,1.45,19.856.657,28.839-3.233a27.9,27.9,0,0,0,11.612-9.02,2.416,2.416,0,0,0-.861-3.283,2.454,2.454,0,0,0-3.283.861c-4.653,6.354-13.143,9.117-20.628,10.1a48.9,48.9,0,0,1-24.964-2.9,23.972,23.972,0,0,1-9.984-7.154,2.476,2.476,0,0,0-3.283-.861,2.415,2.415,0,0,0-.861,3.283Z"/><path class="b" d="M268.6,190.928a25.23,25.23,0,0,0,2.182-5.042l-2.952,1.676a42.133,42.133,0,0,0,22.381-2.605,47.187,47.187,0,0,0,17.52-12.7,46.182,46.182,0,0,0,10.154-19.069,48.52,48.52,0,0,0,.246-21.75,45.786,45.786,0,0,0-11.313-21.734l.617,2.335a43.066,43.066,0,0,0-.331-25.713,38.645,38.645,0,0,0-28.3-25.565c-3.006-.7-4.288,3.928-1.276,4.628a34.35,34.35,0,0,1,22.889,17.429,35.47,35.47,0,0,1,3.927,13.829,39.628,39.628,0,0,1-.191,7.829c-.15,1.179-.369,2.352-.629,3.513-.378,1.69-1.389,3.6-.1,5.109a48.961,48.961,0,0,1,4.859,6.369A40.44,40.44,0,0,1,311.7,126.5a44.448,44.448,0,0,1,2.753,15.769,41.456,41.456,0,0,1-12.187,28.841c-8.632,8.774-20.83,13.636-33.161,11.828a2.477,2.477,0,0,0-2.953,1.676,19.211,19.211,0,0,1-1.7,3.9c-1.537,2.685,2.608,5.106,4.145,2.423Z"/><path class="b" d="M219.409,195.4c10.426,10,28.86,11.2,41.018,3.713a24.354,24.354,0,0,0,8.172-8.188c1.592-2.656-2.556-5.072-4.145-2.423-6.389,10.658-21.711,12.5-32.591,8.849a24.116,24.116,0,0,1-9.06-5.345c-2.23-2.138-5.629,1.251-3.394,3.394Z"/><path class="d" d="M320.159,221.825c1.895.6,3.743,1.256,5.628,1.778a2.989,2.989,0,0,0,3.789-3.091,18.222,18.222,0,0,0-5.123-11.087,17.517,17.517,0,0,0-8.341-5.126c-1.8-.561-6.558-1.19-8.3.043s-2.744,5.931-2.815,7.813a17.508,17.508,0,0,0,2.044,9.574,18.218,18.218,0,0,0,8.739,8.532,2.988,2.988,0,0,0,4.179-2.538C320.093,225.772,320.089,223.81,320.159,221.825Z"/><path class="b" d="M319.521,224.139c3.357,1.068,7.544,3.334,10.668.592,2.834-2.487,1.714-6.906.486-9.949-2.575-6.379-8.194-11.681-15.043-13.075-2.7-.55-6.091-.954-8.648.341-2.488,1.26-3.464,4.6-3.983,7.126A21.344,21.344,0,0,0,308.36,227.8c2.215,2.432,6.106,5.679,9.634,5.009a5.447,5.447,0,0,0,4.155-3.793c.617-2.249.335-4.882.41-7.193.1-3.09-4.7-3.086-4.8,0-.053,1.64-.063,3.282-.146,4.921-.029.569.019,1.311-.568,1.391-.7.095-1.967-.94-2.546-1.325a14.662,14.662,0,0,1-2.622-2.271,16.562,16.562,0,0,1-4.411-13.242c-.045.351.022-.1.029-.139q.073-.431.164-.856c.1-.456.21-.909.339-1.357a7.457,7.457,0,0,1,1.1-2.552c-.2.268.093-.1.162-.15.2-.163-.372.058.15-.053-.345.073.75-.126.625-.109a13.1,13.1,0,0,1,3.2.066,16.8,16.8,0,0,1,13.154,10.819,17.187,17.187,0,0,1,.522,1.865,5.151,5.151,0,0,1,.275,2.017c-.209.6-.65.443-1.195.315-1.757-.411-3.474-1.108-5.193-1.654C317.847,218.572,316.584,223.205,319.521,224.139Z"/><path class="d" d="M11.649,176.153c-1.941-.42-3.842-.905-5.767-1.25A2.989,2.989,0,0,0,2.4,178.331,18.228,18.228,0,0,0,8.521,188.9a17.525,17.525,0,0,0,8.779,4.332c1.842.393,6.641.578,8.265-.811s2.184-6.159,2.081-8.04a17.524,17.524,0,0,0-2.922-9.344,18.227,18.227,0,0,0-9.49-7.687,2.99,2.99,0,0,0-3.927,2.914C11.351,172.217,11.536,174.17,11.649,176.153Z"/><path class="b" d="M12.287,173.838c-3.383-.739-7.855-2.672-10.744.184-2.781,2.751-1.234,6.967.219,9.994a21.328,21.328,0,0,0,16.3,11.74c2.621.322,5.877.385,8.247-.952,2.609-1.471,3.239-4.9,3.582-7.613a21.077,21.077,0,0,0-6.716-17.783,19.715,19.715,0,0,0-4.53-3.2c-1.736-.876-3.659-1.75-5.64-1.259a5.483,5.483,0,0,0-3.949,4.014c-.514,2.261.06,4.906.2,7.195.185,3.069,4.986,3.09,4.8,0-.1-1.638-.24-3.274-.309-4.914-.024-.579-.256-1.589.537-1.666A6.382,6.382,0,0,1,16.7,170.6a14.775,14.775,0,0,1,2.8,1.95,16.589,16.589,0,0,1,5.746,12.812,11.876,11.876,0,0,1-1.114,5.043c-.065.116-.4.446-.111.171-.4.389-.06.029-.034.027-.169.013-.5.206-.921.3a12.268,12.268,0,0,1-3.008.2q-.675-.017-1.348-.077c-.009,0-.88-.123-.367-.039-.135-.022-.272-.044-.406-.075a22.194,22.194,0,0,1-3.584-1.047,17.046,17.046,0,0,1-6.429-5.042,15.846,15.846,0,0,1-2.1-3.4A9.191,9.191,0,0,1,4.754,178c.022-.614.306-.781.934-.7,1.786.239,3.564.783,5.323,1.168C14.022,179.125,15.309,174.5,12.287,173.838Z"/><path class="c" d="M90.915,241.634c-.708,1.856-1.339,3.713-2.1,5.515A2.988,2.988,0,0,1,84.04,248.2a18.225,18.225,0,0,1-5.512-10.9,17.513,17.513,0,0,1,1.159-9.721c.675-1.758,3.138-5.881,5.188-6.484s6.353,1.53,7.873,2.642a17.52,17.52,0,0,1,6.237,7.546,18.218,18.218,0,0,1,1.265,12.148,2.989,2.989,0,0,1-4.584,1.7C94.051,244.031,92.515,242.811,90.915,241.634Z"/><path class="b" d="M88.6,241c-.537,1.417-1.039,2.848-1.591,4.259a4.075,4.075,0,0,1-.491,1.1.506.506,0,0,1-.556.231c-.435-.072-1.319-1.179-1.735-1.691a15.3,15.3,0,0,1-1.807-2.877,17.573,17.573,0,0,1-1.729-7.421,13.705,13.705,0,0,1,.321-3.231c.135-.6.3-1.184.492-1.765.095-.29.2-.579.3-.866q.093-.261.194-.519c-.111.251-.1.237.022-.042a12.556,12.556,0,0,1,3.22-4.591c-.168.124.491-.288.414-.244-.3.174-.032.027.076.017-.3.029.489.076.61.1a11.812,11.812,0,0,1,2.836.993,16.163,16.163,0,0,1,8.486,10.137,15.981,15.981,0,0,1,.71,4.577,14.277,14.277,0,0,1-.17,2.355,3.424,3.424,0,0,1-.394,1.561,1.353,1.353,0,0,1-.409.176,2.439,2.439,0,0,1-.9-.452c-1.5-1.022-2.921-2.165-4.38-3.245a2.416,2.416,0,0,0-3.283.861,2.455,2.455,0,0,0,.861,3.284c2.7,2,5.784,5.376,9.48,4.025,3.735-1.365,4.147-5.988,3.967-9.425A21.463,21.463,0,0,0,93.068,221.09c-2.379-1.412-5.656-2.967-8.493-2.376-2.817.586-4.8,3.582-6.115,5.919a21.386,21.386,0,0,0-.264,19.645c1.433,2.973,4.2,7.163,7.913,7.108,4.8-.072,5.769-5.545,7.12-9.114a2.42,2.42,0,0,0-1.676-2.953A2.453,2.453,0,0,0,88.6,241Z"/><path class="c" d="M354.338,169.934c.056-1.548.055-3.078.163-4.6a2.331,2.331,0,0,1,3.261-1.976,14.207,14.207,0,0,1,6.807,6.659,13.653,13.653,0,0,1,1.587,7.466c-.057,1.467-.838,5.129-2.2,6.089s-5.074.467-6.475.028a13.665,13.665,0,0,1-6.5-4A14.21,14.21,0,0,1,347,170.951a2.33,2.33,0,0,1,2.956-2.407C351.421,168.952,352.861,169.467,354.338,169.934Z"/><path class="b" d="M356.738,169.934c.04-1.216.052-2.432.109-3.647a5.768,5.768,0,0,0,.054-.952c0,.015-.012.279-.038.239l-.094.085.169-.174a.306.306,0,0,1-.24.117c.259-.064.31-.084.153-.058-.451-.088.116.086.235.144a12.007,12.007,0,0,1,1.274.733,10.372,10.372,0,0,1,1.889,1.59A12.588,12.588,0,0,1,363.715,178c.048-.554-.074.414-.107.575q-.114.565-.266,1.122a5.323,5.323,0,0,1-.807,1.948c.252-.376.05,0-.07.055-.283.136.313-.224.36-.192-.082-.057-.692.189-.839.21.429-.059-.11-.006-.213-.007-.215,0-.43.012-.646.009-.437-.006-.874-.038-1.309-.082-.816-.083.225.044-.228-.03-.189-.031-.377-.063-.564-.1-.28-.056-.557-.122-.831-.2a11.757,11.757,0,0,1-6.558-4.659,12.494,12.494,0,0,1-1.506-2.678,21.09,21.09,0,0,1-.736-3.022c-.108-.459.023-.31-.01-.169-.072.306-.089.061.02.021-.329.119.093,0,.114.011l-.111.045c-.221-.011-.13.024.272.1,1.331.448,2.681.859,4.02,1.286a2.4,2.4,0,0,0,1.276-4.629c-2.864-.914-6.33-2.712-8.929-.248-2.275,2.158-1.422,5.749-.37,8.315A17.2,17.2,0,0,0,357.75,186.14c2.226.449,5,.773,7.1-.316s2.949-3.809,3.384-5.969a17.2,17.2,0,0,0-4.49-15.13c-1.888-2-5.149-4.591-8.094-3.82a4.8,4.8,0,0,0-3.4,3.405,28.45,28.45,0,0,0-.313,5.624C351.834,173.023,356.635,173.019,356.738,169.934Z"/><path class="b" d="M237.563,29.591A43.023,43.023,0,0,1,272.445,52.7a36.388,36.388,0,0,1,3.407,11.014A2.415,2.415,0,0,0,278.8,65.39a2.462,2.462,0,0,0,1.676-2.952c-2.319-15.8-14.246-28.543-28.721-34.42a45.718,45.718,0,0,0-14.2-3.227,2.4,2.4,0,1,0,0,4.8Z"/><path class="b" d="M103.758,59.176c3.955-14.153,16.267-24.911,30.336-28.464A38.711,38.711,0,0,1,147,29.686a2.323,2.323,0,0,0,2.072-1.189A41.134,41.134,0,0,1,175.89,6.477a49.519,49.519,0,0,1,35.488,3.664,41.47,41.47,0,0,1,15.651,14.082c1.677,2.581,5.834.178,4.145-2.423C223.554,10.067,210.837,2.58,197.079.592c-13-1.878-26.866.665-37.691,8.335a44.049,44.049,0,0,0-14.464,17.148L147,24.886c-16.512-1.446-33.245,7.355-42.363,21.009a42.065,42.065,0,0,0-5.5,12c-.832,2.979,3.8,4.251,4.629,1.276Z"/><path class="b" d="M75.37,111.308c-4.2-13.8-.777-29.231,10.422-38.743a33.574,33.574,0,0,1,10.29-5.9,2.462,2.462,0,0,0,1.676-2.952,2.42,2.42,0,0,0-2.952-1.676A39.194,39.194,0,0,0,75.949,76.3a40.51,40.51,0,0,0-7.177,22.3,44.6,44.6,0,0,0,1.97,13.977c.9,2.947,5.531,1.691,4.628-1.276Z"/><path class="b" d="M71.359,110.249C61.094,121.562,57.2,137.871,60.668,152.692c3.385,14.462,14.45,26.836,28.128,32.406a42.166,42.166,0,0,0,25.635,1.758l-2.953-1.676c4.143,16.257,24.33,21.232,38.746,17.395a28.746,28.746,0,0,0,12.859-7.122c2.2-2.172-1.191-5.566-3.394-3.394-5.445,5.368-13.472,7.273-20.93,6.956-6.1-.26-12.594-2.2-17.225-6.313a17.371,17.371,0,0,1-5.427-8.8,2.443,2.443,0,0,0-2.952-1.677,37.524,37.524,0,0,1-20.567-.828A41.214,41.214,0,0,1,76.107,170.8a41.824,41.824,0,0,1-10.161-16.942,42.712,42.712,0,0,1-1.013-19.945,41.45,41.45,0,0,1,9.82-20.274c2.072-2.283-1.313-5.688-3.394-3.394Z"/><path class="b" d="M193.062,122.982c8.749,13.329,29.937,14.205,40.848,3.175h-3.394c10.74,11.342,32.305,9.98,40.964-3.175,1.7-2.588-2.452-5-4.145-2.423-7,10.642-24.9,11.2-33.425,2.2a2.432,2.432,0,0,0-3.394,0c-8.651,8.745-26.24,8.567-33.309-2.2-1.688-2.572-5.846-.17-4.145,2.423Z"/><path class="b" d="M124.093,91.883c7.458,11.362,24.2,13.721,35.6,7.218a23.8,23.8,0,0,0,7.817-7.218,2.423,2.423,0,0,0-.861-3.284,2.448,2.448,0,0,0-3.283.861c-7.655,11.111-27.593,11.478-35.126,0-1.688-2.572-5.846-.17-4.145,2.423Z"/></svg>